<svg width="63" height="63" viewBox="0 0 63 63" fill="none" xmlns="http://www.w3.org/2000/svg">
<g id="Frame" clip-path="url(#clip0_8_364)">
<g id="Group">
<g id="&#229;&#175;&#131;&#226;&#145;&#184;&#226;&#148;&#129; &#239;&#167;&#143;&#226;&#145;&#164;&#235;&#177;&#182;">
<g id="Group_2">
<path id="Vector" d="M31.486 62.9721C48.8753 62.9721 62.9721 48.8753 62.9721 31.486C62.9721 14.0968 48.8753 0 31.486 0C14.0968 0 0 14.0968 0 31.486C0 48.8753 14.0968 62.9721 31.486 62.9721Z" fill="url(#paint0_linear_8_364)"/>
<path id="Vector_2" style="mix-blend-mode:multiply" opacity="0.15" d="M43.8346 2.5144C41.8789 3.04522 39.9792 3.6878 38.2191 4.66562C34.4195 6.78891 31.5698 10.2532 28.1055 12.8794C26.4851 14.1086 24.6971 15.1703 22.7135 15.5614C20.1991 16.0643 17.6288 15.5055 15.0865 15.1423C11.5663 14.6395 7.96231 14.5277 4.498 15.2541C1.64834 20.0035 0 25.5632 0 31.486C0 32.38 0.0279379 33.2461 0.111752 34.0843C2.12328 33.302 4.07894 32.2403 5.8949 31.1508C10.337 28.4967 14.835 25.3956 20.0035 25.0044C25.5353 24.5854 31.4302 27.3512 36.4869 25.0882C38.3029 24.278 39.8115 22.8811 41.1805 21.4563C44.2257 18.2155 46.7681 14.5556 49.7295 11.231C50.6794 10.1973 51.6572 9.16363 52.7189 8.21374C50.1206 5.83902 47.1313 3.9113 43.8346 2.5144Z" fill="url(#paint1_linear_8_364)"/>
<path id="Vector_3" opacity="0.3" d="M62.5809 26.3734C60.1224 11.4266 47.1592 0 31.486 0C24.4177 0 17.8803 2.34679 12.6279 6.28603C12.7397 6.28603 12.8514 6.31397 12.9632 6.34191C14.5836 6.64922 16.1481 7.09623 17.6847 7.68293C19.2213 8.26962 20.6741 8.99601 22.071 9.89002C22.4062 10.0856 22.7135 10.3091 23.0209 10.5326C30.8714 16.0084 35.6767 25.7308 44.6448 29.0834C49.8412 31.039 55.9038 30.4244 60.737 27.6585C61.3796 27.2953 61.9942 26.8763 62.5809 26.4293V26.3734Z" fill="url(#paint2_linear_8_364)"/>
<path id="Vector_4" d="M19.8639 4.16279C21.0093 4.16279 21.9313 3.24083 21.9313 2.09538C21.9313 1.89981 21.9033 1.70425 21.8475 1.53662C20.5344 1.95569 19.2492 2.45857 18.02 3.04527C18.3552 3.71578 19.0537 4.19072 19.8639 4.19072V4.16279Z" fill="#DDDFFD"/>
<path id="Vector_5" style="mix-blend-mode:multiply" opacity="0.15" d="M62.8603 34.3916C61.184 36.5148 59.5078 38.6102 57.6918 40.5938C53.082 45.6505 47.5224 50.1206 40.9291 51.8807C33.9725 53.7525 26.4851 52.4115 19.8359 49.6457C15.9805 48.0253 12.2647 45.902 9.41508 42.8288C5.30821 38.3867 3.35255 32.2403 3.10111 26.2057C2.96142 22.9091 3.29668 19.6403 3.88337 16.3995C1.42483 20.8975 0.0279388 26.0381 0.0279388 31.5139C0.0279388 48.9193 14.1366 63 31.514 63C47.9415 63 61.4075 50.4279 62.8603 34.3916Z" fill="url(#paint3_linear_8_364)"/>
<path id="Vector_6" style="mix-blend-mode:multiply" opacity="0.15" d="M30.7317 59.5356C28.6922 59.5356 27.6865 61.184 27.7703 62.7764C28.9995 62.9161 30.2288 62.9999 31.486 62.9999C32.2124 62.9999 32.9667 62.972 33.6652 62.9161C33.8049 61.2957 32.827 59.5356 30.7038 59.5356H30.7317Z" fill="url(#paint4_linear_8_364)"/>
<g id="Group_3" style="mix-blend-mode:overlay" opacity="0.2">
<path id="Vector_7" d="M41.6834 15.0865C41.6834 16.204 40.7894 17.098 39.6718 17.098C38.5543 17.098 37.6603 16.204 37.6603 15.0865C37.6603 13.969 38.5543 13.075 39.6718 13.075C40.7894 13.075 41.6834 13.969 41.6834 15.0865Z" fill="url(#paint5_linear_8_364)"/>
<path id="Vector_8" opacity="0.3" d="M38.2749 16.5113C37.4927 15.7291 37.4927 14.4719 38.2749 13.6896C39.0572 12.9073 40.3144 12.9073 41.0967 13.6896C41.8789 14.4719 41.8789 15.7291 41.0967 16.5113C40.3144 17.2936 39.0572 17.2936 38.2749 16.5113Z" stroke="url(#paint6_linear_8_364)" stroke-width="0.07" stroke-miterlimit="10"/>
</g>
<g id="Group_4">
<path id="Vector_9" d="M31.2346 34.1961C32.0369 34.1961 32.6874 33.5456 32.6874 32.7433C32.6874 31.941 32.0369 31.2905 31.2346 31.2905C30.4322 31.2905 29.7818 31.941 29.7818 32.7433C29.7818 33.5456 30.4322 34.1961 31.2346 34.1961Z" fill="url(#paint7_linear_8_364)"/>
<path id="Vector_10" opacity="0.3" d="M30.2009 33.777C29.6421 33.2182 29.6421 32.2963 30.2009 31.7096C30.7596 31.1508 31.6816 31.1508 32.2683 31.7096C32.827 32.2684 32.827 33.1903 32.2683 33.777C31.7095 34.3358 30.7876 34.3358 30.2009 33.777Z" fill="url(#paint8_linear_8_364)"/>
</g>
<path id="Vector_11" style="mix-blend-mode:multiply" opacity="0.32" d="M55.5126 12.4045C55.5126 12.4045 55.5685 12.3207 55.5964 12.2927C55.6244 12.2369 55.6803 12.2089 55.7082 12.1531C55.7361 12.0972 55.7641 12.0692 55.792 12.0134C55.792 11.9575 55.8479 11.9295 55.8758 11.8737C55.8758 11.8178 55.9317 11.7619 55.9596 11.734C54.6466 10.1136 53.1659 8.60494 51.5455 7.26392C51.5455 7.26392 51.5175 7.26392 51.4896 7.26392C51.4337 7.26392 51.3778 7.31979 51.3499 7.34773C51.294 7.34773 51.2661 7.40361 51.2102 7.43154C51.1543 7.45948 51.0984 7.48742 51.0705 7.51536C51.0146 7.5433 50.9867 7.57123 50.9308 7.62711C50.9029 7.65505 50.847 7.68298 50.8191 7.71092C50.7353 7.7668 50.6514 7.85061 50.5676 7.93443C50.4838 8.01824 50.4279 8.10205 50.3441 8.18587C50.3162 8.21381 50.2882 8.26968 50.2603 8.29762C50.2324 8.3535 50.1765 8.38143 50.1486 8.43731C50.1206 8.49318 50.0927 8.52112 50.0647 8.577C50.0647 8.63287 50.0089 8.66081 49.9809 8.71669C49.9809 8.77256 49.9251 8.82844 49.8971 8.85638C49.8971 8.91225 49.8412 8.94019 49.8412 8.99607C49.8412 9.05194 49.8133 9.10782 49.7854 9.13576C49.7854 9.19163 49.7574 9.24751 49.7295 9.30338C49.7295 9.35926 49.7295 9.41514 49.7016 9.44307C49.7016 9.49895 49.6736 9.55483 49.6736 9.6107C49.6736 9.66658 49.6736 9.72245 49.6736 9.77833C49.6736 9.8342 49.6736 9.86214 49.6736 9.91802C49.6736 10.0298 49.6736 10.1415 49.6736 10.2533C49.6736 10.365 49.6736 10.4768 49.6736 10.5885C49.6736 10.6444 49.6736 10.6723 49.6736 10.7282C49.6736 10.7841 49.6736 10.84 49.6736 10.8958C49.6736 10.9517 49.6736 11.0076 49.7016 11.0635C49.7016 11.1193 49.7015 11.1752 49.7295 11.2032C49.7295 11.259 49.7574 11.3149 49.7854 11.3708C49.7854 11.4267 49.8133 11.4825 49.8412 11.5105C49.8692 11.5384 49.8971 11.5943 49.8971 11.6502C49.8971 11.706 49.953 11.7619 49.9809 11.7899C49.9809 11.8457 50.0368 11.8737 50.0647 11.9295C50.0927 11.9854 50.1206 12.0413 50.1486 12.0692C50.1765 12.1251 50.2044 12.1531 50.2603 12.2089C50.2882 12.2369 50.3162 12.2927 50.3441 12.3207C50.4 12.4045 50.4838 12.4883 50.5676 12.5721C50.6514 12.6559 50.7353 12.7118 50.8191 12.7956C50.847 12.8236 50.9029 12.8515 50.9308 12.8794C50.9867 12.9074 51.0146 12.9633 51.0705 12.9912C51.1264 13.0191 51.1543 13.0471 51.2102 13.075C51.2661 13.075 51.294 13.1309 51.3499 13.1588C51.4058 13.1588 51.4616 13.2147 51.4896 13.2426C51.5455 13.2426 51.5734 13.2985 51.6293 13.2985C51.6851 13.2985 51.741 13.3264 51.769 13.3544C51.8248 13.3544 51.8807 13.3823 51.9366 13.4103C51.9925 13.4103 52.0483 13.4103 52.0763 13.4382C52.1321 13.4382 52.188 13.4661 52.2439 13.4661C52.2998 13.4661 52.3557 13.4661 52.4115 13.4661C52.4674 13.4661 52.4953 13.4661 52.5512 13.4661C52.663 13.4661 52.7747 13.4661 52.8865 13.4661C52.9982 13.4661 53.11 13.4661 53.2217 13.4661C53.2776 13.4661 53.3055 13.4661 53.3614 13.4661C53.4173 13.4661 53.4732 13.4661 53.529 13.4661C53.5849 13.4661 53.6408 13.4661 53.6967 13.4382C53.7525 13.4382 53.8084 13.4382 53.8364 13.4103C53.8922 13.4103 53.9481 13.3823 54.004 13.3544C54.0599 13.3544 54.1157 13.3264 54.1437 13.2985C54.1716 13.2706 54.2275 13.2426 54.2834 13.2426C54.3392 13.2426 54.3951 13.1868 54.4231 13.1588C54.4789 13.1588 54.5069 13.1029 54.5627 13.075C54.6186 13.0471 54.6745 13.0191 54.7024 12.9912C54.7583 12.9633 54.7862 12.9074 54.8421 12.8794C54.8701 12.8515 54.9259 12.8236 54.9539 12.7956C55.0377 12.7397 55.1215 12.6559 55.2053 12.5721C55.2891 12.4883 55.345 12.4045 55.4288 12.3207L55.5126 12.4045Z" fill="url(#paint9_linear_8_364)"/>
<g id="Group_5">
<path id="Vector_12" d="M18.02 43.1921C20.9053 43.1921 23.2443 40.853 23.2443 37.9677C23.2443 35.0823 20.9053 32.7433 18.02 32.7433C15.1346 32.7433 12.7956 35.0823 12.7956 37.9677C12.7956 40.853 15.1346 43.1921 18.02 43.1921Z" fill="url(#paint10_linear_8_364)"/>
<path id="Vector_13" opacity="0.3" d="M18.02 43.1921C20.9053 43.1921 23.2443 40.853 23.2443 37.9677C23.2443 35.0823 20.9053 32.7433 18.02 32.7433C15.1346 32.7433 12.7956 35.0823 12.7956 37.9677C12.7956 40.853 15.1346 43.1921 18.02 43.1921Z" fill="url(#paint11_linear_8_364)"/>
</g>
<g id="Group_6" style="mix-blend-mode:multiply">
<path id="Vector_14" d="M47.1033 37.4647C47.1033 38.4146 46.3211 39.1968 45.3712 39.1968C44.4213 39.1968 43.639 38.4146 43.639 37.4647C43.639 36.5148 44.4213 35.7325 45.3712 35.7325C46.3211 35.7325 47.1033 36.5148 47.1033 37.4647Z" fill="url(#paint12_linear_8_364)"/>
<path id="Vector_15" opacity="0.3" d="M44.1419 38.694C43.4714 38.0235 43.4714 36.9059 44.1419 36.2354C44.8124 35.5649 45.9299 35.5649 46.6004 36.2354C47.271 36.9059 47.271 38.0235 46.6004 38.694C45.9299 39.3645 44.8124 39.3645 44.1419 38.694Z" fill="url(#paint13_linear_8_364)"/>
</g>
<g id="Group_7">
<path id="Vector_16" d="M16.0084 21.6239C17.1194 21.6239 18.02 20.7233 18.02 19.6124C18.02 18.5014 17.1194 17.6008 16.0084 17.6008C14.8975 17.6008 13.9969 18.5014 13.9969 19.6124C13.9969 20.7233 14.8975 21.6239 16.0084 21.6239Z" fill="url(#paint14_linear_8_364)"/>
<path id="Vector_17" opacity="0.3" d="M14.5836 21.0372C13.8013 20.2549 13.8013 18.9977 14.5836 18.2155C15.3659 17.4332 16.6231 17.4332 17.4053 18.2155C18.1876 18.9977 18.1876 20.2549 17.4053 21.0372C16.6231 21.8195 15.3659 21.8195 14.5836 21.0372Z" stroke="url(#paint15_linear_8_364)" stroke-width="0.07" stroke-miterlimit="10"/>
</g>
<path id="Vector_18" style="mix-blend-mode:multiply" opacity="0.15" d="M58.9211 42.5215C58.9211 43.5273 59.2843 44.4492 59.8989 45.1477C60.9047 43.0523 61.6869 40.8452 62.2177 38.5264C60.3459 38.8896 58.949 40.5379 58.949 42.5215H58.9211Z" fill="url(#paint16_linear_8_364)"/>
<path id="Vector_19" style="mix-blend-mode:multiply" opacity="0.15" d="M61.7428 22.7415C60.9326 22.965 60.1503 23.2443 59.3681 23.5517C55.7361 24.9765 52.3836 27.3233 50.2324 30.592C48.7517 32.7991 47.8576 35.4253 46.0417 37.353C43.9463 39.588 40.9011 40.6217 37.9397 41.4599C32.3521 43.0244 26.569 44.0581 21.4563 46.796C19.8639 47.6341 18.3552 48.6678 17.0142 49.8971C14.9747 51.741 13.2984 53.976 12.3486 56.5463C15.8687 59.2563 20.0035 61.2399 24.4736 62.2457C26.3175 58.0829 29.8377 54.6466 34.1122 53.11C36.9339 52.1042 39.9792 51.8528 42.8009 50.847C43.667 50.5397 44.5051 50.1486 45.1756 49.5619C46.1255 48.7517 46.6843 47.6062 47.243 46.4887C50.5118 39.9512 54.4789 33.1344 61.1561 30.1729C61.7149 29.9215 62.3016 29.698 62.8882 29.5024C62.7486 27.1836 62.3295 24.9485 61.7149 22.7973L61.7428 22.7415Z" fill="url(#paint17_linear_8_364)"/>
</g>
</g>
</g>
</g>
<defs>
<linearGradient id="paint0_linear_8_364" x1="60.8208" y1="89.4293" x2="4.10687" y2="-22.6018" gradientUnits="userSpaceOnUse">
<stop stop-color="#712BE2"/>
<stop offset="0.99" stop-color="white"/>
</linearGradient>
<linearGradient id="paint1_linear_8_364" x1="0" y1="18.2993" x2="52.7189" y2="18.2993" gradientUnits="userSpaceOnUse">
<stop stop-color="#712BE2"/>
<stop offset="0.99" stop-color="white"/>
</linearGradient>
<linearGradient id="paint2_linear_8_364" x1="12.6279" y1="15.0865" x2="62.5809" y2="15.0865" gradientUnits="userSpaceOnUse">
<stop stop-color="#9181FA"/>
<stop offset="0.99" stop-color="white"/>
</linearGradient>
<linearGradient id="paint3_linear_8_364" x1="30.9552" y1="6.70508" x2="31.933" y2="61.4075" gradientUnits="userSpaceOnUse">
<stop stop-color="#712BE2"/>
<stop offset="0.99" stop-color="white"/>
</linearGradient>
<linearGradient id="paint4_linear_8_364" x1="30.6199" y1="61.1002" x2="23.7193" y2="-35.565" gradientUnits="userSpaceOnUse">
<stop stop-color="#712CE2"/>
<stop offset="0.15" stop-color="#9663E9"/>
<stop offset="0.3" stop-color="#B693F0"/>
<stop offset="0.45" stop-color="#D0B9F5"/>
<stop offset="0.59" stop-color="#E4D8F9"/>
<stop offset="0.73" stop-color="#F3EDFC"/>
<stop offset="0.86" stop-color="#FCFAFE"/>
<stop offset="0.99" stop-color="white"/>
</linearGradient>
<linearGradient id="paint5_linear_8_364" x1="37.9956" y1="9.63859" x2="41.5716" y2="21.2608" gradientUnits="userSpaceOnUse">
<stop stop-color="#712CE2"/>
<stop offset="0.15" stop-color="#9663E9"/>
<stop offset="0.3" stop-color="#B693F0"/>
<stop offset="0.45" stop-color="#D0B9F5"/>
<stop offset="0.59" stop-color="#E4D8F9"/>
<stop offset="0.73" stop-color="#F3EDFC"/>
<stop offset="0.86" stop-color="#FCFAFE"/>
<stop offset="0.99" stop-color="white"/>
</linearGradient>
<linearGradient id="paint6_linear_8_364" x1="41.1786" y1="13.5647" x2="38.2153" y2="16.528" gradientUnits="userSpaceOnUse">
<stop stop-color="white"/>
<stop offset="0.99" stop-color="white" stop-opacity="0"/>
</linearGradient>
<linearGradient id="paint7_linear_8_364" x1="26.4013" y1="27.2675" x2="43.0244" y2="46.0697" gradientUnits="userSpaceOnUse">
<stop stop-color="#712CE2"/>
<stop offset="0.15" stop-color="#9663E9"/>
<stop offset="0.3" stop-color="#B693F0"/>
<stop offset="0.45" stop-color="#D0B9F5"/>
<stop offset="0.59" stop-color="#E4D8F9"/>
<stop offset="0.73" stop-color="#F3EDFC"/>
<stop offset="0.86" stop-color="#FCFAFE"/>
<stop offset="0.99" stop-color="white"/>
</linearGradient>
<linearGradient id="paint8_linear_8_364" x1="26.4013" y1="27.2675" x2="43.0244" y2="46.0697" gradientUnits="userSpaceOnUse">
<stop stop-color="#712CE2"/>
<stop offset="0.15" stop-color="#9663E9"/>
<stop offset="0.3" stop-color="#B693F0"/>
<stop offset="0.45" stop-color="#D0B9F5"/>
<stop offset="0.59" stop-color="#E4D8F9"/>
<stop offset="0.73" stop-color="#F3EDFC"/>
<stop offset="0.86" stop-color="#FCFAFE"/>
<stop offset="0.99" stop-color="white"/>
</linearGradient>
<linearGradient id="paint9_linear_8_364" x1="54.0878" y1="16.1202" x2="52.3277" y2="9.55483" gradientUnits="userSpaceOnUse">
<stop stop-color="#9181FA"/>
<stop offset="0.99" stop-color="white"/>
</linearGradient>
<linearGradient id="paint10_linear_8_364" x1="14.7512" y1="30.0612" x2="30.0891" y2="67.2746" gradientUnits="userSpaceOnUse">
<stop stop-color="#712CE2"/>
<stop offset="0.15" stop-color="#9663E9"/>
<stop offset="0.3" stop-color="#B693F0"/>
<stop offset="0.45" stop-color="#D0B9F5"/>
<stop offset="0.59" stop-color="#E4D8F9"/>
<stop offset="0.73" stop-color="#F3EDFC"/>
<stop offset="0.86" stop-color="#FCFAFE"/>
<stop offset="0.99" stop-color="white"/>
</linearGradient>
<linearGradient id="paint11_linear_8_364" x1="14.7512" y1="30.0612" x2="30.0891" y2="67.2746" gradientUnits="userSpaceOnUse">
<stop stop-color="#712CE2"/>
<stop offset="0.15" stop-color="#9663E9"/>
<stop offset="0.3" stop-color="#B693F0"/>
<stop offset="0.45" stop-color="#D0B9F5"/>
<stop offset="0.59" stop-color="#E4D8F9"/>
<stop offset="0.73" stop-color="#F3EDFC"/>
<stop offset="0.86" stop-color="#FCFAFE"/>
<stop offset="0.99" stop-color="white"/>
</linearGradient>
<linearGradient id="paint12_linear_8_364" x1="44.4213" y1="33.6931" x2="45.8741" y2="39.4762" gradientUnits="userSpaceOnUse">
<stop stop-color="#712CE2"/>
<stop offset="0.15" stop-color="#9663E9"/>
<stop offset="0.3" stop-color="#B693F0"/>
<stop offset="0.45" stop-color="#D0B9F5"/>
<stop offset="0.59" stop-color="#E4D8F9"/>
<stop offset="0.73" stop-color="#F3EDFC"/>
<stop offset="0.86" stop-color="#FCFAFE"/>
<stop offset="0.99" stop-color="white"/>
</linearGradient>
<linearGradient id="paint13_linear_8_364" x1="44.4213" y1="33.6931" x2="45.8741" y2="39.4762" gradientUnits="userSpaceOnUse">
<stop stop-color="#712CE2"/>
<stop offset="0.15" stop-color="#9663E9"/>
<stop offset="0.3" stop-color="#B693F0"/>
<stop offset="0.45" stop-color="#D0B9F5"/>
<stop offset="0.59" stop-color="#E4D8F9"/>
<stop offset="0.73" stop-color="#F3EDFC"/>
<stop offset="0.86" stop-color="#FCFAFE"/>
<stop offset="0.99" stop-color="white"/>
</linearGradient>
<linearGradient id="paint14_linear_8_364" x1="16.0084" y1="14.0807" x2="16.0084" y2="27.4629" gradientUnits="userSpaceOnUse">
<stop stop-color="#712CE2"/>
<stop offset="0.15" stop-color="#9663E9"/>
<stop offset="0.3" stop-color="#B693F0"/>
<stop offset="0.45" stop-color="#D0B9F5"/>
<stop offset="0.59" stop-color="#E4D8F9"/>
<stop offset="0.73" stop-color="#F3EDFC"/>
<stop offset="0.86" stop-color="#FCFAFE"/>
<stop offset="0.99" stop-color="white"/>
</linearGradient>
<linearGradient id="paint15_linear_8_364" x1="17.512" y1="18.0688" x2="14.5487" y2="21.0321" gradientUnits="userSpaceOnUse">
<stop stop-color="white"/>
<stop offset="0.99" stop-color="white" stop-opacity="0"/>
</linearGradient>
<linearGradient id="paint16_linear_8_364" x1="61.8545" y1="58.8652" x2="54.9259" y2="-37.8" gradientUnits="userSpaceOnUse">
<stop stop-color="#712CE2"/>
<stop offset="0.15" stop-color="#9663E9"/>
<stop offset="0.3" stop-color="#B693F0"/>
<stop offset="0.45" stop-color="#D0B9F5"/>
<stop offset="0.59" stop-color="#E4D8F9"/>
<stop offset="0.73" stop-color="#F3EDFC"/>
<stop offset="0.86" stop-color="#FCFAFE"/>
<stop offset="0.99" stop-color="white"/>
</linearGradient>
<linearGradient id="paint17_linear_8_364" x1="12.3486" y1="42.4656" x2="62.9162" y2="42.4656" gradientUnits="userSpaceOnUse">
<stop stop-color="#712BE2"/>
<stop offset="0.99" stop-color="white"/>
</linearGradient>
<clipPath id="clip0_8_364">
<rect width="63" height="63" fill="white"/>
</clipPath>
</defs>
</svg>
