<svg width="174" height="168" viewBox="0 0 174 168" fill="none" xmlns="http://www.w3.org/2000/svg">
<g id="Frame" clip-path="url(#clip0_8_261)">
<g id="Group">
<g id="OBJECTS">
<g id="Group_2">
<g id="Group_3">
<path id="Vector" d="M175.384 143.391C208.104 110.587 208.104 57.4008 175.384 24.5968C142.663 -8.20723 89.6119 -8.20723 56.891 24.5968C24.1702 57.4008 24.1702 110.587 56.891 143.391C89.6119 176.195 142.663 176.195 175.384 143.391Z" fill="url(#paint0_linear_8_261)"/>
<path id="Vector_2" d="M197.03 105.966C187.637 97.6351 175.972 91.7254 165.017 85.2995C150.635 76.8621 136.112 65.8615 131.495 49.8233C127.252 35.0846 132.17 19.7051 130.323 4.73494C130.181 3.57791 130.004 2.36749 129.773 1.12146C126.968 0.658651 124.091 0.338244 121.179 0.160241C116.741 -0.106765 112.373 -0.0177632 108.076 0.391646C112 11.0719 113.42 22.6955 111.858 33.981C110.651 42.7566 107.774 51.4431 108.573 60.2721C110.384 80.0127 129.258 93.1316 146.623 102.655C160.827 110.451 176.487 119.209 184.424 132.666C190.07 124.71 194.384 115.72 197.012 105.984L197.03 105.966Z" fill="url(#paint1_linear_8_261)"/>
<path id="Vector_3" d="M137.869 165.116C154.009 160.773 168.32 151.695 179.115 139.359C171.48 129.729 158.554 122.787 146.552 118.444C127.607 111.591 105.342 104.132 98.7546 85.0502C96.0913 77.3248 96.5884 68.923 95.3456 60.8417C92.5402 42.8455 80.7685 27.2346 65.5523 17.0527C58.1483 22.6777 51.7032 29.513 46.5009 37.3096C47.3177 38.7514 48.0811 40.211 48.7558 41.7241C55.9289 57.5486 56.0887 76.0076 64.0963 91.4405C74.0038 110.54 93.9784 121.683 111.13 134.624C121.872 142.706 132.294 153.19 137.887 165.116H137.869Z" fill="url(#paint2_linear_8_261)"/>
<path id="Vector_4" d="M147.866 6.26575C140.32 18.8862 134.762 34.1411 140.639 47.3846C147.297 62.3904 165.301 67.9441 181.228 71.8245C186.306 73.0706 191.579 74.3878 195.645 77.7165C197.278 79.0515 198.628 80.6535 199.888 82.3446C199.249 48.2924 178.174 18.7082 147.883 6.26575H147.866Z" fill="url(#paint3_linear_8_261)"/>
<path id="Vector_5" d="M105.519 167.306C106.23 166.202 106.709 164.956 106.851 163.586C107.33 158.726 103.353 154.579 99.2162 151.998C90.818 146.764 80.5732 144.771 72.8142 138.612C65.6588 132.933 61.4508 124.354 57.9886 115.881C54.5263 107.408 51.4546 98.5786 45.8085 91.3694C41.9556 86.4743 37.4102 83.5729 32.421 81.864C31.3024 125.048 63.0843 161.912 105.537 167.306H105.519Z" fill="url(#paint4_linear_8_261)"/>
<path id="Vector_6" style="mix-blend-mode:multiply" opacity="0.15" d="M189.022 125.457C186.536 121.167 183.66 117.091 179.914 113.869C164.573 100.679 138.793 104.684 125.103 89.7674C119.493 83.644 116.971 75.2066 116.314 66.9295C115.658 58.6523 116.687 50.3217 117.273 42.0267C118.285 27.911 117.948 13.3859 113.154 0.0712453C113.154 0.0712453 113.154 0.0534449 113.154 0.0356445C99.4293 0.516255 86.468 4.34334 75.0869 10.7693C75.6018 14.0089 75.9391 17.2842 76.2765 20.4349C77.5193 32.2543 79.5612 44.0026 82.5441 55.5194C84.7812 64.1526 87.5688 72.7324 92.1851 80.351C103.122 98.4184 122.76 108.938 140.923 119.654C152.766 126.65 164.84 134.696 173.682 145.02C179.701 139.324 184.885 132.737 189.022 125.439V125.457Z" fill="url(#paint5_linear_8_261)"/>
<path id="Vector_7" style="mix-blend-mode:multiply" opacity="0.15" d="M140.462 164.387C136.644 153.653 129.311 144.148 119.635 138.131C109.479 131.812 97.1921 129.213 87.7108 121.915C68.695 107.283 66.5466 78.8735 50.6024 60.9486C47.2289 57.1571 43.2695 53.953 38.9195 51.3719C36.487 57.1393 34.6937 63.2626 33.5929 69.6351C40.9613 74.2098 47.3532 80.3688 52.1471 87.6135C60.1015 99.5932 63.7058 114.207 72.6011 125.475C80.9638 136.084 93.215 142.741 103.85 151.072C109.816 155.736 115.516 161.432 119.333 167.929C126.63 167.662 133.732 166.434 140.479 164.387H140.462Z" fill="url(#paint6_linear_8_261)"/>
<path id="Vector_8" style="mix-blend-mode:multiply" opacity="0.15" d="M199.764 89.0553C199.817 88.0585 199.835 87.0617 199.871 86.0648C198.042 85.246 196.178 84.4984 194.366 83.7864C184.601 79.9949 173.895 75.883 168.71 66.7692C165.692 61.4647 165.035 55.1812 164.84 49.0756C164.733 45.391 164.769 41.6885 164.964 38.0038C165.319 31.5067 166.136 25.0451 167.432 18.6726C167.485 18.37 167.574 18.0852 167.627 17.7826C164.84 15.5931 161.91 13.5995 158.838 11.7661C160.561 25.5613 160.418 39.6414 160.081 53.5791C159.779 65.8614 159.744 79.3719 167.556 88.8417C173.078 95.5346 181.512 98.8811 189.146 102.975C191.685 104.328 194.171 105.823 196.568 107.461C198.255 101.587 199.373 95.4456 199.746 89.0909L199.764 89.0553Z" fill="url(#paint7_linear_8_261)"/>
</g>
<path id="Vector_9" style="mix-blend-mode:overlay" opacity="0.49" d="M199.871 88.9307C199.64 92.473 199.178 96.0331 198.468 99.5931C204.86 103.545 215.513 112.676 209.405 127.148C206.103 134.98 194.722 138.238 179.488 138.54C155.767 139.003 122.706 132.292 96.3576 124.425C70.6481 116.753 47.2467 103.402 31.9772 89.8029C21.5549 80.5111 14.9144 71.1125 13.9379 63.3159C12.2511 49.8767 29.2961 47.6694 39.6652 47.5626C41.423 43.8067 43.4115 40.2111 45.6487 36.829C23.0996 36.9892 5.93025 42.8099 1.17185 57.0146C-4.47432 73.8894 10.955 91.939 35.3329 107.639C52.9994 119.013 75.371 129.16 97.8136 136.707C120.416 144.325 144.545 149.79 165.603 151.374C194.26 153.528 217.217 148.437 222.846 131.652C227.569 117.536 217.555 102.601 199.888 88.9129L199.871 88.9307Z" fill="url(#paint8_linear_8_261)"/>
<path id="Vector_10" style="mix-blend-mode:multiply" opacity="0.15" d="M199.001 99.9847C198.308 103.527 197.367 107.069 196.195 110.594C195.929 111.413 195.609 112.196 195.325 112.997C202.552 120.099 203.546 124.407 203.244 125.279C202.924 126.24 198.859 129.569 186.377 130.619C183.483 130.868 180.145 130.993 176.292 130.922C156.281 130.619 130.998 125.671 105.093 116.931C79.1883 108.209 56.0355 96.8697 39.9137 84.9968C36.9664 82.8252 34.4984 80.8137 32.4033 78.9625C22.7622 70.3827 21.5015 65.185 21.8211 64.1882C22.123 63.2982 25.603 60.3967 35.9365 59.1329C36.1674 58.3674 36.3804 57.6198 36.629 56.8544C37.6588 53.7927 38.8484 50.8201 40.1978 47.9542C29.8287 48.061 12.7837 50.2505 14.4705 63.7076C15.447 71.5041 22.0875 80.9027 32.5098 90.1945C47.7793 103.794 71.1807 117.162 96.8903 124.816C123.239 132.666 156.299 139.395 180.02 138.932C195.254 138.629 206.635 135.372 209.938 127.54C216.046 113.05 205.375 103.936 199.001 99.9847Z" fill="url(#paint9_linear_8_261)"/>
</g>
</g>
</g>
</g>
<defs>
<linearGradient id="paint0_linear_8_261" x1="176.86" y1="69.7995" x2="19.9759" y2="106.472" gradientUnits="userSpaceOnUse">
<stop stop-color="#F3D44D"/>
<stop offset="1" stop-color="#E28D21"/>
</linearGradient>
<linearGradient id="paint1_linear_8_261" x1="36.3528" y1="90.8126" x2="154.093" y2="64.9907" gradientUnits="userSpaceOnUse">
<stop stop-color="white"/>
<stop offset="0.99" stop-color="white" stop-opacity="0"/>
</linearGradient>
<linearGradient id="paint2_linear_8_261" x1="235.156" y1="35.9199" x2="71.7221" y2="103.737" gradientUnits="userSpaceOnUse">
<stop stop-color="white"/>
<stop offset="0.99" stop-color="white" stop-opacity="0"/>
</linearGradient>
<linearGradient id="paint3_linear_8_261" x1="172.119" y1="7.78616" x2="167.727" y2="80.4564" gradientUnits="userSpaceOnUse">
<stop stop-color="white"/>
<stop offset="0.99" stop-color="white" stop-opacity="0"/>
</linearGradient>
<linearGradient id="paint4_linear_8_261" x1="16.4788" y1="128.469" x2="83.4773" y2="123.609" gradientUnits="userSpaceOnUse">
<stop stop-color="white"/>
<stop offset="0.99" stop-color="white" stop-opacity="0"/>
</linearGradient>
<linearGradient id="paint5_linear_8_261" x1="183.423" y1="129.803" x2="110.706" y2="50.3502" gradientUnits="userSpaceOnUse">
<stop stop-color="#F3D44D"/>
<stop offset="1" stop-color="#E28D21"/>
</linearGradient>
<linearGradient id="paint6_linear_8_261" x1="90.8263" y1="54.5877" x2="84.1006" y2="165.867" gradientUnits="userSpaceOnUse">
<stop stop-color="#F3D44D"/>
<stop offset="1" stop-color="#E28D21"/>
</linearGradient>
<linearGradient id="paint7_linear_8_261" x1="181.595" y1="13.1915" x2="175.971" y2="106.241" gradientUnits="userSpaceOnUse">
<stop stop-color="#F3D44D"/>
<stop offset="1" stop-color="#E28D21"/>
</linearGradient>
<linearGradient id="paint8_linear_8_261" x1="-0.64343" y1="62.4009" x2="221.115" y2="136.713" gradientUnits="userSpaceOnUse">
<stop stop-color="white"/>
<stop offset="0.99" stop-color="white" stop-opacity="0"/>
</linearGradient>
<linearGradient id="paint9_linear_8_261" x1="151.158" y1="4.24061" x2="86.8694" y2="150.605" gradientUnits="userSpaceOnUse">
<stop stop-color="#C66F5E"/>
<stop offset="1" stop-color="#BB2F62"/>
</linearGradient>
<clipPath id="clip0_8_261">
<rect width="224" height="168" fill="white"/>
</clipPath>
</defs>
</svg>
