<svg width="125" height="151" viewBox="0 0 125 151" fill="none" xmlns="http://www.w3.org/2000/svg">
<g id="Frame">
<g id="Group">
<g id="OBJECTS">
<g id="Clip path group">
<mask id="mask0_8_276" style="mask-type:luminance" maskUnits="userSpaceOnUse" x="-28" y="12" width="130" height="130">
<g id="clippath">
<path id="Vector" d="M37.29 141.16C72.8572 141.16 101.69 112.327 101.69 76.76C101.69 41.1928 72.8572 12.36 37.29 12.36C1.72288 12.36 -27.11 41.1928 -27.11 76.76C-27.11 112.327 1.72288 141.16 37.29 141.16Z" fill="white"/>
</g>
</mask>
<g mask="url(#mask0_8_276)">
<g id="Group_2">
<path id="Vector_2" d="M37.29 141.16C72.8572 141.16 101.69 112.327 101.69 76.76C101.69 41.1928 72.8572 12.36 37.29 12.36C1.72288 12.36 -27.11 41.1928 -27.11 76.76C-27.11 112.327 1.72288 141.16 37.29 141.16Z" fill="url(#paint0_linear_8_276)"/>
<g id="Group_3">
<path id="Vector_3" d="M74.72 8.14002C73.3 7.25002 71.83 7.02002 70.39 7.22002C71.75 6.66002 73.13 6.13002 74.5 5.66002C75.99 5.15002 75.87 2.50002 74.1 2.72002C71.69 3.02002 69.4 3.44002 67.15 4.36002C64.91 5.28002 62.74 6.35002 60.67 7.62002C56.96 9.90002 53.56 12.74 50.65 15.98C51.66 13.09 53.27 10.49 55.54 8.33002C58.3 5.70002 61.85 3.81002 65.54 2.85002C67.09 2.45002 66.82 -0.129983 65.15 -0.00998285C57.84 0.500017 51.38 5.23002 48.08 11.71C46.13 15.53 45.78 19.71 44.98 23.85C44.1 25.41 43.3 27.03 42.61 28.7C41.92 30.35 41.41 32.07 40.94 33.8C40.66 34.23 40.37 34.65 40.07 35.07C39.08 36.44 37.98 37.77 36.79 39.02C34.29 40.91 31.72 42.68 29.05 44.28C27.89 44.98 26.71 45.62 25.52 46.23C23.57 46.8 21.54 47.12 19.47 47.22C15.04 47.43 10.65 46.86 6.25001 46.5C1.87001 46.14 -2.52999 46.1 -6.91999 46.41C-16.87 47.13 -26.62 49.64 -35.73 53.72C-37.1 54.33 -35.91 56.33 -34.55 55.74C-26.43 52.19 -17.74 49.97 -8.91999 49.14C-4.53999 48.73 -0.119995 48.66 4.28001 48.94C8.25001 49.2 12.21 49.7 16.19 49.9C15.78 50.02 15.38 50.14 14.96 50.25C9.96001 51.56 4.82001 52.23 -0.319992 52.72C-10.85 53.71 -21.47 54.17 -31.66 57.23C-37.31 58.93 -42.79 61.26 -47.93 64.16C-50.35 65.53 -52.65 67.09 -55.04 68.52C-56.15 69.19 -57.29 69.8 -58.48 70.31C-59.79 70.87 -61.1 71.48 -62.53 71.57C-64.51 71.69 -64.55 74.69 -62.53 74.67C-61.32 74.66 -60.02 74.66 -58.83 74.44C-57.6 74.22 -56.42 73.7 -55.29 73.19C-53.03 72.18 -50.95 70.85 -48.85 69.57C-44.46 66.9 -39.83 64.65 -34.99 62.93C-30.09 61.18 -25.02 59.96 -19.88 59.2C-14.78 58.45 -9.61999 58.15 -4.47999 57.78C6.10001 57.01 16.71 55.93 26.42 51.34C30.29 49.51 33.92 47.23 37.38 44.74C33.38 52.64 25.12 57.24 16.68 59.03C11.38 60.15 6.01 59.81 0.630005 59.85C-5.02999 59.89 -10.41 60.82 -15.62 63.07C-20.87 65.34 -25.58 68.77 -29.77 72.63C-31.86 74.55 -33.79 76.62 -35.64 78.77C-37.53 80.97 -40.17 84.03 -37.63 86.8C-36.87 87.63 -35.45 87.57 -34.68 86.8C-33.95 86.07 -33.96 85.12 -34.38 84.31C-34.31 84.51 -34.53 84.37 -34.44 84.19C-34.44 84.19 -34.44 84.21 -34.43 84.21C-34.43 84.21 -34.43 84.19 -34.44 84.19C-34.42 84.15 -34.4 84.12 -34.35 84.08C-34.27 84.01 -34.21 83.84 -34.16 83.75C-33.92 83.34 -33.58 82.99 -33.28 82.62C-32.44 81.64 -31.58 80.67 -30.7 79.72C-29.01 77.9 -27.26 76.14 -25.41 74.49C-21.86 71.31 -17.91 68.56 -13.56 66.6C-8.77999 64.45 -3.70999 63.85 1.48001 63.83C6.83001 63.81 12.14 64 17.41 62.93C26.1 61.17 34.59 56.61 39.54 49.06C41.35 46.31 42.4 43.27 43.29 40.17C46.01 37.94 48.64 35.61 51.14 33.13C55.21 29.09 58.99 24.76 62.41 20.15C65.38 16.15 68.1 10.47 73.92 10.94C75.48 11.07 75.85 8.89002 74.68 8.15002L74.72 8.14002ZM61.93 13.04C58.79 17.08 55.72 21.13 52.25 24.9C50.64 26.65 48.97 28.36 47.26 30.03C47.81 28.61 48.21 27.16 48.54 25.69C49.18 24.56 49.86 23.45 50.61 22.38C53.41 18.36 57.01 14.83 61.06 12.07C62.53 11.07 64.06 10.17 65.64 9.36002C64.19 10.44 62.91 11.77 61.93 13.04Z" fill="url(#paint1_linear_8_276)"/>
</g>
<g id="Vector_4" style="mix-blend-mode:multiply" opacity="0.15">
<path d="M122.37 75.06C119.56 78.23 117.74 82.16 114.47 84.93C110.88 87.97 106.25 87.75 101.88 88.61C101.44 88.7 101.01 88.8 100.58 88.9C102.75 85.63 104.92 82.36 108 79.9C109.35 78.82 107.61 76.65 106.17 77.53C103.13 79.37 100.86 82.18 98.98 85.15C97.86 86.93 96.87 88.76 95.73 90.5C91.39 92.33 87.45 95.12 84.24 98.57C83.86 98.69 83.48 98.81 83.11 98.95C79.32 100.32 75.91 102.58 73.22 105.6C70.43 108.72 68.84 112.32 67.47 116.22C66.81 118.08 66.15 119.97 65.02 121.61C64.96 121.69 64.89 121.76 64.83 121.84C60.29 122.82 55.55 122.35 50.97 121.96C45.91 121.52 40.86 121.39 35.87 122.54C26.32 124.75 18.36 131.68 13.29 139.88C12.23 141.6 14.94 143.18 15.99 141.46C20.39 134.26 27.15 128.17 35.4 125.84C40.39 124.43 45.47 125.08 50.54 125.66C52.9 125.93 55.24 126.18 57.58 126.27C54.51 127.04 51.25 127.1 48.11 127.27C43.81 127.51 39.65 128.06 35.75 129.98C28.44 133.57 22.92 141.2 23.12 149.52C23.17 151.53 26.28 151.54 26.25 149.52C26.15 142.47 30.81 136.33 36.84 133.08C44.33 129.04 53.23 131.49 60.97 128.31C62.56 127.66 63.98 126.8 65.22 125.77C69.5 124.95 73.48 122.83 76.2 119.37C78.99 115.8 80.36 111.35 82.5 107.4C83.81 104.99 85.48 102.78 87.41 100.83C87.87 100.67 88.32 100.5 88.77 100.32C90.57 99.59 92.2 98.66 93.69 97.4C94.75 96.51 95.69 95.51 96.58 94.47C98.21 93.74 99.9 93.14 101.64 92.72C104.29 92.07 107.01 91.96 109.68 91.43C112.11 90.94 114.37 89.95 116.35 88.44C120.21 85.5 123.27 81.04 124.6 76.39C124.95 75.15 123.27 74.08 122.37 75.09V75.06ZM75.06 114.92C73.62 117.42 71.67 119.13 69.31 120.3C70.91 116.71 71.78 112.92 74.08 109.66C75.69 107.38 77.76 105.47 80.11 103.98C79.22 105.46 78.45 107.02 77.81 108.63C76.96 110.78 76.2 112.91 75.04 114.92H75.06Z" fill="#1220F1"/>
</g>
<path id="Vector_5" d="M95.66 33.69C75.41 40.82 69.3 63.62 58.33 79.7C55.95 83.19 53.23 86.43 50.1 89.26C52.61 85.22 54.31 80.77 55.76 76.19C57.62 70.31 59.29 64.41 62.25 58.97C64.94 54.02 68.36 49.51 72.39 45.58C76.9 41.17 82.13 37.57 87.85 34.9C89.37 34.19 88.05 31.93 86.53 32.64C76.34 37.4 67.64 45.2 61.69 54.74C61.48 55.08 61.28 55.43 61.08 55.77C61.37 54.88 61.67 53.99 61.98 53.11C64.01 47.33 66.61 41.55 71.01 37.17C75.66 32.54 81.9 30.01 88.19 28.52C89.83 28.13 89.13 25.61 87.49 26C81.8 27.34 76.24 29.53 71.61 33.16C67.13 36.67 63.99 41.48 61.71 46.64C57.26 56.72 55.76 68.21 49.3 77.36C46.04 81.97 41.51 85.14 36.22 87.02C30.96 88.89 25.41 89.73 19.98 90.95C9.69001 93.27 0.190002 97.91 -7.92 104.68C-16.79 112.1 -23.66 121.85 -27.52 132.76C-28.08 134.35 -25.56 135.03 -25 133.46C-24.02 130.69 -22.83 128.02 -21.46 125.44C-21.79 126.42 -22.1 127.4 -22.4 128.36C-22.9 129.97 -20.38 130.66 -19.88 129.06C-18.42 124.37 -16.85 119.37 -13.28 115.81C-9.52999 112.07 -4.07 110.61 0.949999 109.47C6.69 108.16 12.55 107.44 18.33 106.35C23.08 105.46 27.76 104.25 32.3 102.59C32.64 103.13 33.33 103.49 34.08 103.17C37.23 101.78 40.18 99.92 42.81 97.7C48.51 94.39 53.62 90.16 57.76 84.89C64.2 76.7 68.35 67.1 73.59 58.16C78.93 49.03 86.02 39.88 96.35 36.24C97.93 35.68 97.25 33.16 95.65 33.72L95.66 33.69ZM1.89 106.57C-2.25 107.44 -6.63 108.5 -10.42 110.54C-2.54 102.64 7.4 96.8 18.27 94.04C28.81 91.36 40.59 90.64 48.58 82.33C50.23 80.61 51.62 78.73 52.84 76.75C51.48 80.9 49.91 84.96 47.47 88.62C45.69 91.29 43.53 93.67 41.08 95.72C38.89 96.96 36.62 98.05 34.3 99.01C29.53 100.98 24.54 102.41 19.48 103.44C13.64 104.63 7.72 105.34 1.89 106.56V106.57Z" fill="url(#paint2_linear_8_276)"/>
<path id="Vector_6" style="mix-blend-mode:overlay" opacity="0.2" d="M31.31 81.1101C13.77 83.7501 -3.89001 89.0801 -18.52 99.4001C-22.6 102.28 -26.42 105.52 -29.87 109.13C-31.03 110.35 -29.19 112.2 -28.02 110.98C-15.89 98.2901 0.449989 90.7701 17.29 86.5401C22.15 85.3201 27.06 84.3701 32.01 83.6301C33.67 83.3801 32.96 80.8601 31.31 81.1101Z" fill="url(#paint3_linear_8_276)"/>
<path id="Vector_7" style="mix-blend-mode:overlay" opacity="0.2" d="M95.03 40.97C85.19 48.43 80.29 60.02 75.79 71.13C75.16 72.69 77.69 73.37 78.31 71.83C82.52 61.44 87.14 50.22 96.35 43.23C97.67 42.23 96.37 39.95 95.03 40.97Z" fill="url(#paint4_linear_8_276)"/>
<g id="Vector_8" style="mix-blend-mode:multiply" opacity="0.15">
<path d="M24.68 120.44C24.13 119.89 23.39 120 22.83 120.44C17.84 124.33 13.44 128.9 9.68001 133.99C9.26001 134.56 9.59001 135.45 10.15 135.78C10.82 136.17 11.52 135.88 11.94 135.31C15.56 130.41 19.88 126.04 24.68 122.29C25.24 121.85 25.14 120.9 24.68 120.44Z" fill="#1220F1"/>
</g>
<path id="Vector_9" d="M3.75001 41.29C-4.42999 39.66 -12.86 39.47 -21.11 40.69C-22.77 40.94 -22.45 43.53 -20.78 43.29C-12.74 42.09 -4.59 42.3 3.38 43.88C5.03 44.21 5.40001 41.62 3.75001 41.29Z" fill="url(#paint5_linear_8_276)"/>
<path id="Vector_10" style="mix-blend-mode:multiply" opacity="0.15" d="M37.29 141.16C70.36 141.16 97.59 116.23 101.26 84.15C100.63 83.79 99.99 83.46 99.32 83.17C97.04 82.19 94.47 81.66 92.04 82.22C87.23 83.32 84.33 88.14 80.2 90.84C72.5 95.88 61.53 93 53.81 98.02C50.53 100.16 48.25 103.48 45.81 106.54C42.68 110.47 39.07 114.16 34.57 116.4C30.07 118.64 24.55 119.26 20.03 117.07C16.99 115.6 14.63 113.01 12.61 110.3C7.01003 102.82 3.34002 94.08 -1.64998 86.18C-6.63998 78.28 -13.52 70.88 -22.57 68.53C-23.86 68.2 -25.17 67.99 -26.48 67.89C-26.88 70.79 -27.1 73.75 -27.1 76.77C-27.1 112.34 1.73003 141.17 37.3 141.17L37.29 141.16Z" fill="url(#paint6_linear_8_276)"/>
<path id="Vector_11" d="M5.41002 40.0001C11.51 41.6901 17.72 43.7201 22.55 47.8101C26.42 51.0801 29.56 55.7501 34.5 56.8801C41.39 58.4601 47.25 53.8001 51.81 49.2301C56.47 44.5601 59.85 39.0501 66.78 37.8801C74.23 36.6301 82.18 40.6201 89.38 37.9401C94.74 35.9401 101.46 28.4201 98.4 22.3901C95.65 16.9701 85.29 15.0301 79.97 13.8201C72.41 12.1101 64.66 11.4101 57.01 10.2701C47.55 8.86007 38.17 6.76007 28.63 6.17007C19.09 5.58007 9.18001 6.61007 0.750011 11.1201C-5.25999 14.3301 -10.24 19.1401 -14.95 24.0601C-17.42 26.6401 -19.84 29.2801 -22 32.1301C-23.29 33.8301 -25.3 36.4401 -23.96 38.7001C-23.38 39.6801 -22.5 39.4101 -21.61 39.0501C-19.96 38.3901 -18.24 37.9201 -16.49 37.6201C-13.07 37.0401 -9.56999 37.1001 -6.13999 37.5301C-2.22999 38.0101 1.61002 38.9501 5.41002 40.0001Z" fill="url(#paint7_linear_8_276)"/>
<path id="Vector_12" d="M99.11 58.7C97.87 54.45 96.21 50.38 94.17 46.54C93.91 46.59 93.64 46.66 93.38 46.7C87.41 47.64 81.06 46.72 75.47 49.03C69.38 51.54 65.43 57.32 61.11 62.29C56.39 67.72 50.86 72.44 44.77 76.27C41.31 78.44 37.38 80.39 33.32 79.96C29.9 79.6 26.89 77.62 24.13 75.56C17.59 70.69 11.6 65.12 5.02001 60.3C-1.55999 55.48 -8.88998 51.38 -16.93 50.01C-18.3 49.78 -19.69 49.63 -21.08 49.58C-23.95 55.74 -25.88 62.42 -26.67 69.45C-22.26 70.19 -17.96 71.68 -13.94 73.55C-5.57998 77.44 1.91002 82.95 9.94002 87.49C17.97 92.03 26.9 95.66 36.11 95.22C42.32 94.92 48.31 92.79 53.93 90.13C60.66 86.94 67.06 82.94 72.46 77.8C76.58 73.89 80.1 69.33 84.57 65.84C88.89 62.47 93.86 60.26 99.11 58.71V58.7Z" fill="url(#paint8_linear_8_276)"/>
<path id="Vector_13" style="mix-blend-mode:multiply" opacity="0.15" d="M89.91 39.65C87.8 36.67 85.46 33.86 82.89 31.28C73.86 33.59 65.66 38.68 60.82 46.55C58.36 50.55 56.85 55.07 54.42 59.1C49.87 66.64 41.64 72.24 32.84 72.26C22.8 72.29 14.06 65.47 7.27 58.07C0.610001 50.81 -5.25 42.52 -13.56 37.27C-15.39 39.63 -17.06 42.12 -18.56 44.72C-17.62 45.21 -16.71 45.76 -15.8 46.31C-7.6 51.28 0.840002 56.47 6.28 64.36C9.37 68.84 11.41 74.09 15.15 78.05C20.13 83.32 28 85.68 35.06 84.01C39.41 82.98 43.3 80.6 46.99 78.09C55.09 72.59 62.67 66.31 69.58 59.38C75.54 53.41 81.02 46.95 87.48 41.53C88.26 40.88 89.07 40.24 89.91 39.64V39.65Z" fill="url(#paint9_linear_8_276)"/>
<path id="Vector_14" d="M-40.77 139.21C-37.32 130.78 -29.51 124.64 -20.91 121.64C-12.31 118.64 -2.96002 118.45 6.10998 119.31C15.18 120.17 24.13 122.04 33.18 123.04C37.63 123.53 42.21 123.8 46.52 122.57C52.8 120.78 57.79 116.02 61.91 110.96C66.04 105.9 69.63 100.34 74.49 95.98C84.71 86.83 99.13 84.19 112.81 83.23C113.8 83.16 114.82 83.1 115.78 83.37C119.04 84.3 120.03 88.34 120.47 91.7C115.41 91.17 110.24 91.62 105.34 93.01C90.2 97.31 79.11 109.87 68.42 121.42C63.86 126.35 59.04 131.32 52.89 134.02C46.03 137.04 38.2 136.92 30.76 136.02C23.31 135.13 15.9 133.51 8.40998 133.73C0.909985 133.95 -6.93002 136.29 -11.83 141.97C-14.22 144.74 -15.78 148.16 -18.28 150.83C-17.22 142.11 -22.56 133 -30.68 129.65C-30.23 130.15 -29.78 130.65 -29.33 131.15" fill="url(#paint10_linear_8_276)"/>
<g id="Vector_15" style="mix-blend-mode:overlay" opacity="0.32">
<path d="M-6.17001 47.92C-13.29 58.11 -16.53 70.95 -15.09 83.3C-14.64 87.17 -13.69 91.11 -11.3 94.19C-8.24001 98.13 -3.11002 100.11 1.87998 100.15C6.86998 100.19 11.73 98.47 16.13 96.11C32.49 87.35 42.81 70.17 48.41 52.48C50.24 46.68 51.67 40.6 50.98 34.56C46.99 -0.0800228 3.86999 33.56 -6.16001 47.92H-6.17001Z" fill="#8FD1FC"/>
</g>
<g id="Vector_16" style="mix-blend-mode:multiply" opacity="0.15">
<path d="M37.29 141.16C72.86 141.16 101.69 112.33 101.69 76.7601C101.69 74.9401 101.6 73.1501 101.45 71.3701C95.83 73.9101 92.06 79.7301 88.22 84.7801C71.74 106.43 41.69 119.56 16.38 109.59C9.24003 106.77 2.83003 102.33 -2.96997 97.3001C-7.50997 93.3601 -11.72 89.0301 -15.54 84.3901C-18.99 80.1901 -22.13 75.7401 -24.92 71.0701C-25.43 70.2101 -25.94 69.1401 -26.49 68.0801C-26.87 70.9201 -27.09 73.8201 -27.09 76.7701C-27.09 112.34 1.74003 141.17 37.31 141.17L37.29 141.16Z" fill="#8E52FA"/>
</g>
</g>
</g>
</g>
</g>
</g>
</g>
<defs>
<linearGradient id="paint0_linear_8_276" x1="16.83" y1="5.31998" x2="50.91" y2="124.31" gradientUnits="userSpaceOnUse">
<stop stop-color="#7DBDFC"/>
<stop offset="1" stop-color="#656EFA"/>
</linearGradient>
<linearGradient id="paint1_linear_8_276" x1="-39.25" y1="-57.87" x2="64.59" y2="164.69" gradientUnits="userSpaceOnUse">
<stop stop-color="#7DBDFC"/>
<stop offset="1" stop-color="#656EFA"/>
</linearGradient>
<linearGradient id="paint2_linear_8_276" x1="125.54" y1="-1.08003" x2="27.25" y2="92.79" gradientUnits="userSpaceOnUse">
<stop stop-color="#7DBDFC"/>
<stop offset="1" stop-color="#656EFA"/>
</linearGradient>
<linearGradient id="paint3_linear_8_276" x1="-64.87" y1="-45.6699" x2="38.98" y2="176.9" gradientUnits="userSpaceOnUse">
<stop stop-color="white"/>
<stop offset="0.99" stop-color="white" stop-opacity="0"/>
</linearGradient>
<linearGradient id="paint4_linear_8_276" x1="19.9" y1="-85.47" x2="123.75" y2="137.09" gradientUnits="userSpaceOnUse">
<stop stop-color="white"/>
<stop offset="0.99" stop-color="white" stop-opacity="0"/>
</linearGradient>
<linearGradient id="paint5_linear_8_276" x1="-0.891428" y1="103.846" x2="-11.2258" y2="22.3072" gradientUnits="userSpaceOnUse">
<stop stop-color="white"/>
<stop offset="0.99" stop-color="white" stop-opacity="0"/>
</linearGradient>
<linearGradient id="paint6_linear_8_276" x1="-27.11" y1="104.53" x2="101.26" y2="104.53" gradientUnits="userSpaceOnUse">
<stop stop-color="#7DBDFC"/>
<stop offset="1" stop-color="#656EFA"/>
</linearGradient>
<linearGradient id="paint7_linear_8_276" x1="70.49" y1="79.9901" x2="27.78" y2="16.4701" gradientUnits="userSpaceOnUse">
<stop stop-color="white"/>
<stop offset="0.99" stop-color="white" stop-opacity="0"/>
</linearGradient>
<linearGradient id="paint8_linear_8_276" x1="40.54" y1="15.52" x2="33.89" y2="90.14" gradientUnits="userSpaceOnUse">
<stop stop-color="white"/>
<stop offset="0.99" stop-color="white" stop-opacity="0"/>
</linearGradient>
<linearGradient id="paint9_linear_8_276" x1="-18.57" y1="57.92" x2="89.91" y2="57.92" gradientUnits="userSpaceOnUse">
<stop stop-color="#7DBDFC"/>
<stop offset="1" stop-color="#656EFA"/>
</linearGradient>
<linearGradient id="paint10_linear_8_276" x1="83.65" y1="174.71" x2="43.09" y2="118.19" gradientUnits="userSpaceOnUse">
<stop stop-color="white"/>
<stop offset="0.99" stop-color="white" stop-opacity="0"/>
</linearGradient>
</defs>
</svg>
