<svg width="227" height="171" viewBox="0 0 227 171" fill="none" xmlns="http://www.w3.org/2000/svg">
<g id="BACKGROUND" style="mix-blend-mode:hard-light" clip-path="url(#clip0_7_108)">
<g id="Vector" filter="url(#filter0_d_7_108)">
<path d="M110.769 26.3813C102.63 19.7234 91.9012 16.2692 81.3859 16.9305C70.8641 17.5918 60.6585 22.3493 53.4288 29.9767C52.2024 31.2672 51.1889 33.6363 52.7381 34.5223C53.2029 35.3313 53.5579 35.8192 54.0227 36.6282C59.9227 33.3731 67.2169 32.7118 73.6139 34.8497C80.0109 36.9877 85.4203 41.8929 88.1573 48.0307" fill="#E84C41"/>
</g>
<g id="Vector_2" filter="url(#filter1_d_7_108)">
<path d="M162.049 104.048C164.96 114.122 163.882 125.287 159.092 134.622C154.303 143.964 145.853 151.386 135.944 154.962C134.266 155.565 131.684 155.553 131.477 153.787C130.916 153.042 130.606 152.529 130.044 151.777C135.396 147.681 138.901 141.293 139.469 134.603C140.037 127.913 137.661 121.03 133.085 116.093" fill="#E84C41"/>
</g>
<g id="Group" filter="url(#filter2_d_7_108)">
<path id="Vector_3" d="M212.515 45.026C219.325 26.3363 219.531 11.73 219.531 11.73C219.531 11.73 206.131 6.17639 186.365 4.92442C189.309 21.0074 198.914 35.8321 212.515 45.026Z" fill="#E84C41"/>
<g id="Vector_4" filter="url(#filter3_d_7_108)">
<path d="M212.515 45.026C198.914 35.8256 189.309 21.001 186.365 4.92442C157.633 3.10104 115.449 10.3753 81.4182 57.0321L102.139 88.4148L122.86 119.798C179.206 107.323 202.709 71.9402 212.515 45.0324V45.026Z" fill="white"/>
</g>
</g>
<g id="Vector_5" filter="url(#filter4_d_7_108)">
<path d="M65.7 87.4775C51.8151 86.8354 37.7946 93.2687 29.2674 104.183C36.0711 103.785 42.8812 103.387 49.6849 102.989C29.2868 113.172 13.7365 132.51 8.23026 154.538C23.7031 156.227 39.6214 153.755 53.842 147.45C51.3697 149.665 48.8974 151.887 46.4251 154.102C65.1642 156.246 84.6457 144.664 91.6172 127.232" fill="#FF9324"/>
</g>
<g id="Vector_6" filter="url(#filter5_d_7_108)">
<path d="M71.7743 93.9107C65.6871 92.755 59.161 94.0455 53.9775 97.429C58.0959 99.1625 62.2143 100.89 66.3326 102.623C51.034 110.116 38.2723 122.61 30.4939 137.698C44.1787 135.746 57.4504 130.982 69.2309 123.791C64.764 128.247 60.2971 132.696 55.8302 137.152C68.3014 137.023 80.4822 130.077 86.8921 119.432" fill="#FFDD00"/>
</g>
<path id="Vector_7" d="M178.761 69.6385C192.234 63.7312 198.341 48.0794 192.401 34.6793C186.462 21.2792 170.725 15.2051 157.253 21.1125C143.78 27.0198 137.673 42.6716 143.613 56.0717C149.552 69.4718 165.288 75.5459 178.761 69.6385Z" fill="#424242"/>
<path id="Vector_8" d="M178.851 61.8024C169.73 67.7605 157.485 65.2373 151.495 56.1718C150.604 54.8171 149.9 53.3918 149.377 51.9343C148.287 48.8654 148.003 45.6295 148.467 42.5157C148.738 40.6923 149.268 38.9074 150.042 37.2317C150.733 35.7037 151.63 34.2655 152.708 32.9493C153.948 31.4405 155.439 30.0923 157.162 28.9623C166.277 23.0042 178.522 25.5338 184.513 34.5993C185.139 35.5496 185.674 36.5383 186.113 37.5527C186.811 39.1193 187.269 40.7436 187.521 42.3872C187.811 44.2235 187.824 46.0854 187.579 47.9023C187.172 51.0547 186.004 54.0852 184.119 56.7175C182.731 58.6757 180.969 60.4028 178.839 61.796L178.851 61.8024Z" fill="#A1DDFF"/>
<g id="Vector_9" filter="url(#filter6_d_7_108)">
<path d="M58.8124 78.0331L89.2934 68.9547L116.527 110.193L96.039 134.41L58.8124 78.0331Z" fill="white"/>
</g>
<path id="Vector_10" d="M89.2934 68.9547L116.527 110.193L112.138 115.38L82.664 70.746L89.2934 68.9547Z" fill="#BABABA"/>
<path id="Vector_11" d="M184.132 56.7239L149.377 51.9343C148.287 48.8654 148.003 45.6295 148.467 42.5157L187.592 47.9088C187.185 51.0612 186.017 54.0916 184.132 56.7239Z" fill="white"/>
<path id="Vector_12" d="M187.534 42.3937L150.042 37.2317C150.733 35.7036 151.63 34.2655 152.708 32.9493L186.12 37.5527C186.817 39.1193 187.275 40.7436 187.527 42.3872L187.534 42.3937Z" fill="white"/>
<g id="Vector_13" filter="url(#filter7_d_7_108)">
<path d="M86.8663 103.727C82.4639 104.915 79.0943 99.8174 81.941 96.2734C94.8318 80.2096 125.861 49.2442 136.784 65.7831C147.706 82.3219 106.806 98.3407 86.8663 103.727Z" fill="#E84C41"/>
</g>
</g>
<defs>
<filter id="filter0_d_7_108" x="43.6717" y="16.8503" width="73.0178" height="51.3004" filterUnits="userSpaceOnUse" color-interpolation-filters="sRGB">
<feFlood flood-opacity="0" result="BackgroundImageFix"/>
<feColorMatrix in="SourceAlpha" type="matrix" values="0 0 0 0 0 0 0 0 0 0 0 0 0 0 0 0 0 0 127 0" result="hardAlpha"/>
<feOffset dx="-1.18" dy="13.02"/>
<feGaussianBlur stdDeviation="3.55"/>
<feColorMatrix type="matrix" values="0 0 0 0 0.568627 0 0 0 0 0.568627 0 0 0 0 0.568627 0 0 0 0.75 0"/>
<feBlend mode="normal" in2="BackgroundImageFix" result="effect1_dropShadow_7_108"/>
<feBlend mode="normal" in="SourceGraphic" in2="effect1_dropShadow_7_108" result="shape"/>
</filter>
<filter id="filter1_d_7_108" x="121.764" y="104.048" width="47.8115" height="71.3927" filterUnits="userSpaceOnUse" color-interpolation-filters="sRGB">
<feFlood flood-opacity="0" result="BackgroundImageFix"/>
<feColorMatrix in="SourceAlpha" type="matrix" values="0 0 0 0 0 0 0 0 0 0 0 0 0 0 0 0 0 0 127 0" result="hardAlpha"/>
<feOffset dx="-1.18" dy="13.02"/>
<feGaussianBlur stdDeviation="3.55"/>
<feColorMatrix type="matrix" values="0 0 0 0 0.568627 0 0 0 0 0.568627 0 0 0 0 0.568627 0 0 0 0.75 0"/>
<feBlend mode="normal" in2="BackgroundImageFix" result="effect1_dropShadow_7_108"/>
<feBlend mode="normal" in="SourceGraphic" in2="effect1_dropShadow_7_108" result="shape"/>
</filter>
<filter id="filter2_d_7_108" x="77.4182" y="0.675032" width="150.113" height="127.123" filterUnits="userSpaceOnUse" color-interpolation-filters="sRGB">
<feFlood flood-opacity="0" result="BackgroundImageFix"/>
<feColorMatrix in="SourceAlpha" type="matrix" values="0 0 0 0 0 0 0 0 0 0 0 0 0 0 0 0 0 0 127 0" result="hardAlpha"/>
<feOffset dx="2" dy="2"/>
<feGaussianBlur stdDeviation="3"/>
<feColorMatrix type="matrix" values="0 0 0 0 0 0 0 0 0 0 0 0 0 0 0 0 0 0 0.75 0"/>
<feBlend mode="normal" in2="BackgroundImageFix" result="effect1_dropShadow_7_108"/>
<feBlend mode="normal" in="SourceGraphic" in2="effect1_dropShadow_7_108" result="shape"/>
</filter>
<filter id="filter3_d_7_108" x="73.1382" y="4.67503" width="145.297" height="135.243" filterUnits="userSpaceOnUse" color-interpolation-filters="sRGB">
<feFlood flood-opacity="0" result="BackgroundImageFix"/>
<feColorMatrix in="SourceAlpha" type="matrix" values="0 0 0 0 0 0 0 0 0 0 0 0 0 0 0 0 0 0 127 0" result="hardAlpha"/>
<feOffset dx="-1.18" dy="13.02"/>
<feGaussianBlur stdDeviation="3.55"/>
<feColorMatrix type="matrix" values="0 0 0 0 0.568627 0 0 0 0 0.568627 0 0 0 0 0.568627 0 0 0 0.75 0"/>
<feBlend mode="normal" in2="BackgroundImageFix" result="effect1_dropShadow_7_108"/>
<feBlend mode="normal" in="SourceGraphic" in2="effect1_dropShadow_7_108" result="shape"/>
</filter>
<filter id="filter4_d_7_108" x="-0.0497447" y="87.4335" width="97.587" height="87.7414" filterUnits="userSpaceOnUse" color-interpolation-filters="sRGB">
<feFlood flood-opacity="0" result="BackgroundImageFix"/>
<feColorMatrix in="SourceAlpha" type="matrix" values="0 0 0 0 0 0 0 0 0 0 0 0 0 0 0 0 0 0 127 0" result="hardAlpha"/>
<feOffset dx="-1.18" dy="13.02"/>
<feGaussianBlur stdDeviation="3.55"/>
<feColorMatrix type="matrix" values="0 0 0 0 0.568627 0 0 0 0 0.568627 0 0 0 0 0.568627 0 0 0 0.75 0"/>
<feBlend mode="normal" in2="BackgroundImageFix" result="effect1_dropShadow_7_108"/>
<feBlend mode="normal" in="SourceGraphic" in2="effect1_dropShadow_7_108" result="shape"/>
</filter>
<filter id="filter5_d_7_108" x="22.2139" y="93.4964" width="70.5982" height="64.3211" filterUnits="userSpaceOnUse" color-interpolation-filters="sRGB">
<feFlood flood-opacity="0" result="BackgroundImageFix"/>
<feColorMatrix in="SourceAlpha" type="matrix" values="0 0 0 0 0 0 0 0 0 0 0 0 0 0 0 0 0 0 127 0" result="hardAlpha"/>
<feOffset dx="-1.18" dy="13.02"/>
<feGaussianBlur stdDeviation="3.55"/>
<feColorMatrix type="matrix" values="0 0 0 0 0.568627 0 0 0 0 0.568627 0 0 0 0 0.568627 0 0 0 0.75 0"/>
<feBlend mode="normal" in2="BackgroundImageFix" result="effect1_dropShadow_7_108"/>
<feBlend mode="normal" in="SourceGraphic" in2="effect1_dropShadow_7_108" result="shape"/>
</filter>
<filter id="filter6_d_7_108" x="50.5324" y="68.9547" width="71.915" height="85.5756" filterUnits="userSpaceOnUse" color-interpolation-filters="sRGB">
<feFlood flood-opacity="0" result="BackgroundImageFix"/>
<feColorMatrix in="SourceAlpha" type="matrix" values="0 0 0 0 0 0 0 0 0 0 0 0 0 0 0 0 0 0 127 0" result="hardAlpha"/>
<feOffset dx="-1.18" dy="13.02"/>
<feGaussianBlur stdDeviation="3.55"/>
<feColorMatrix type="matrix" values="0 0 0 0 0.568627 0 0 0 0 0.568627 0 0 0 0 0.568627 0 0 0 0.75 0"/>
<feBlend mode="normal" in2="BackgroundImageFix" result="effect1_dropShadow_7_108"/>
<feBlend mode="normal" in="SourceGraphic" in2="effect1_dropShadow_7_108" result="shape"/>
</filter>
<filter id="filter7_d_7_108" x="72.61" y="61.061" width="71.9164" height="62.962" filterUnits="userSpaceOnUse" color-interpolation-filters="sRGB">
<feFlood flood-opacity="0" result="BackgroundImageFix"/>
<feColorMatrix in="SourceAlpha" type="matrix" values="0 0 0 0 0 0 0 0 0 0 0 0 0 0 0 0 0 0 127 0" result="hardAlpha"/>
<feOffset dx="-1.18" dy="13.02"/>
<feGaussianBlur stdDeviation="3.55"/>
<feColorMatrix type="matrix" values="0 0 0 0 0.568627 0 0 0 0 0.568627 0 0 0 0 0.568627 0 0 0 0.75 0"/>
<feBlend mode="normal" in2="BackgroundImageFix" result="effect1_dropShadow_7_108"/>
<feBlend mode="normal" in="SourceGraphic" in2="effect1_dropShadow_7_108" result="shape"/>
</filter>
<clipPath id="clip0_7_108">
<rect width="227" height="171" fill="white"/>
</clipPath>
</defs>
</svg>
