<svg width="163" height="233" viewBox="0 0 163 233" fill="none" xmlns="http://www.w3.org/2000/svg">
<g id="_&#231;&#147;&#166;?4" clip-path="url(#clip0_7_123)">
<path id="Vector" d="M130.697 142.701C131.152 145.126 129.475 147.504 126.973 147.973L67.6615 159.095C65.1596 159.564 62.7389 157.974 62.2806 155.53L51.1102 95.9579C50.6553 93.5321 52.332 91.1544 54.8339 90.6853L114.146 79.5636C116.648 79.0945 119.072 80.7032 119.527 83.129L130.697 142.701Z" fill="#90A4AE"/>
<g id="Group">
<g id="Group_2">
<g id="Group_3">
<path id="Vector_2" d="M98.2872 157.304C98.3753 157.774 98.5399 159.067 98.7866 161.006C99.822 169.123 101.822 188.408 101.896 203.032C101.895 203.441 101.906 203.809 101.886 204.222C101.884 204.631 101.895 204.999 101.883 205.351C101.874 205.509 101.868 205.685 101.874 205.82C101.854 206.856 101.827 207.853 101.777 208.836C101.747 209.815 101.687 210.741 101.62 211.63C101.552 212.518 101.475 213.35 101.39 214.145C101.227 215.557 101.006 216.767 100.734 217.81C100.679 218.035 100.605 218.263 100.53 218.491C100.389 218.984 100.222 219.444 100.022 219.832C99.8614 220.115 99.712 220.357 99.578 220.577C99.5169 220.666 99.4557 220.756 99.391 220.826C99.277 220.945 99.1629 221.064 99.023 221.148C98.8032 221.326 98.5539 221.45 98.2906 221.5C98.1024 221.535 97.9331 221.567 97.7415 221.583L97.7227 221.587C97.5687 221.596 97.377 221.613 97.1936 221.569C96.9949 221.548 96.8186 221.542 96.6164 221.502C96.2531 221.434 95.8827 221.328 95.483 221.17C95.2773 221.111 95.1021 221.008 94.8928 220.93C94.6577 220.818 94.4379 220.684 94.1992 220.554C94.0464 220.466 93.8747 220.381 93.7184 220.274C93.5361 220.133 93.3351 219.996 93.1117 219.843C92.7249 219.546 92.3311 219.211 91.9302 218.838C91.7374 218.641 91.5223 218.428 91.3295 218.231C91.1179 218.037 90.9251 217.839 90.7475 217.62C90.5512 217.403 90.3325 217.172 90.1515 216.933C89.733 216.467 89.3298 215.978 88.9159 215.433C87.8849 214.088 86.8786 212.564 85.8476 210.908C85.4832 210.314 85.1341 209.699 84.7438 209.071C84.4534 208.561 84.1819 208.047 83.888 207.519C83.6893 207.186 83.5059 206.831 83.326 206.495C83.1462 206.159 82.9663 205.823 82.7865 205.487C75.3252 191.138 68.6884 170.698 66.541 159.247C66.541 159.247 97.5608 153.43 98.2872 157.304Z" fill="#CFD8DC"/>
<path id="Vector_3" d="M101.882 204.203C101.881 204.612 101.891 204.98 101.88 205.332C101.87 205.49 101.864 205.666 101.87 205.801C101.85 206.837 101.823 207.835 101.774 208.817C101.743 209.796 101.683 210.722 101.616 211.611C101.549 212.499 101.471 213.331 101.387 214.126C101.223 215.539 101.002 216.748 100.73 217.792C100.675 218.016 100.601 218.244 100.527 218.472C100.386 218.966 100.219 219.425 100.019 219.813C99.8578 220.096 99.7085 220.338 99.5745 220.558C99.5133 220.648 99.4522 220.737 99.3875 220.807C99.2735 220.926 99.1594 221.045 99.0195 221.129C98.6009 221.286 98.1789 221.423 97.738 221.564L97.7192 221.568C97.5651 221.577 97.3735 221.594 97.1901 221.55C96.9914 221.529 96.8151 221.523 96.6128 221.483C96.2531 221.434 95.8863 221.347 95.4795 221.151C95.2737 221.092 95.0986 220.989 94.8893 220.911C94.6577 220.818 94.419 220.688 94.1804 220.557C94.0464 220.466 93.8935 220.378 93.7113 220.237C93.5291 220.096 93.328 219.958 93.1047 219.805C92.7179 219.508 92.324 219.173 91.9232 218.801C91.7304 218.603 91.5152 218.391 91.3224 218.193C91.1108 217.999 90.918 217.802 90.7405 217.582C90.5442 217.366 90.3255 217.134 90.1444 216.896C89.7259 216.429 89.3227 215.94 88.9089 215.395C87.8779 214.05 86.8716 212.526 85.8406 210.87C85.4761 210.277 85.127 209.661 84.7367 209.033C84.4463 208.523 84.1748 208.01 83.8809 207.481C83.6822 207.148 83.4988 206.793 83.319 206.457C85.4165 205.597 87.7902 204.86 90.3297 204.384C92.2485 204.024 94.1167 203.81 95.9037 203.786C98.0705 203.711 100.066 203.862 101.879 204.184L101.882 204.203Z" fill="#263238"/>
<path id="Vector_4" d="M103.032 204.416C102.928 204.902 102.549 205.265 102.097 205.35C102.022 205.364 101.966 205.375 101.887 205.37C101.887 205.37 101.752 205.376 101.673 205.371C99.9198 205.057 97.9694 204.937 95.9378 205.006C91.9839 205.105 87.7055 205.966 83.888 207.519C83.8503 207.526 83.7974 207.555 83.7598 207.562C83.1602 207.791 82.4842 207.509 82.2397 206.932C82.0022 206.393 82.2574 205.78 82.7677 205.49C82.7829 205.468 82.8358 205.438 82.8735 205.431C86.9967 203.743 91.5726 202.807 95.8497 202.667C97.9566 202.584 100.005 202.706 101.9 203.051C101.96 203.059 102.02 203.068 102.102 203.091C102.746 203.204 103.152 203.809 103.039 204.453L103.032 204.416Z" fill="#E64A19"/>
</g>
<path id="Vector_5" opacity="0.2" d="M103.032 204.416C102.928 204.902 102.549 205.265 102.097 205.35C102.022 205.364 101.966 205.375 101.887 205.37C101.874 205.509 101.868 205.685 101.874 205.82C101.854 206.856 101.827 207.853 101.777 208.836C101.747 209.815 101.687 210.741 101.62 211.63C101.552 212.518 101.475 213.35 101.39 214.145C101.227 215.557 101.006 216.767 100.734 217.81C100.679 218.035 100.605 218.263 100.53 218.491C100.389 218.984 100.222 219.444 100.022 219.832C99.8614 220.115 99.712 220.357 99.578 220.577C99.5169 220.666 99.4557 220.756 99.3911 220.826C99.277 220.945 99.163 221.064 99.023 221.148C98.8032 221.326 98.5539 221.45 98.2906 221.5C98.1025 221.535 97.9331 221.567 97.7415 221.583L97.7227 221.587C97.5687 221.596 97.377 221.613 97.1936 221.569C96.9949 221.548 96.8186 221.542 96.6164 221.502C96.2566 221.453 95.8898 221.366 95.483 221.17C95.2773 221.111 95.1021 221.008 94.8928 220.93C94.6612 220.837 94.4226 220.707 94.1839 220.576C94.1839 220.576 94.1804 220.558 94.1992 220.554C95.4797 217.414 96.1619 212.536 95.9378 205.006C95.939 204.597 95.9096 204.233 95.9108 203.824C95.8814 203.459 95.8638 203.054 95.8462 202.648C95.7076 200.144 95.5044 197.399 95.1848 194.344C92.4375 167.335 92.3061 162.688 93.6806 160.464C95.6123 160.277 97.3182 160.444 98.7831 160.987C99.8184 169.105 101.818 188.39 101.893 203.014C101.953 203.022 102.013 203.03 102.095 203.053C102.739 203.166 103.145 203.771 103.032 204.416Z" fill="#212121"/>
<g id="Group_4">
<path id="Vector_6" d="M128.599 147.61C130.75 159.08 131.98 180.593 130.171 196.699C130.144 197.074 130.101 197.471 130.056 197.849C130.01 198.228 129.967 198.625 129.903 199.007C129.84 199.505 129.763 200.026 129.697 200.506C129.51 201.689 129.297 202.839 129.096 203.947C129.028 204.31 128.941 204.677 128.869 205.021C128.801 205.384 128.729 205.729 128.62 206.08C128.548 206.424 128.454 206.754 128.363 207.101C128.288 207.427 128.19 207.737 128.096 208.066C127.838 208.971 127.546 209.805 127.244 210.581C127.194 210.63 127.19 210.708 127.181 210.768C127.034 211.127 126.884 211.466 126.73 211.787C126.564 212.149 126.398 212.511 126.21 212.858C126.198 212.899 126.153 212.966 126.126 213.03C125.964 213.313 125.788 213.619 125.623 213.883C125.425 214.173 125.211 214.486 125.009 214.757C124.993 214.78 124.978 214.802 124.932 214.869C124.76 215.096 124.563 215.289 124.369 215.5C124.16 215.734 123.943 215.93 123.686 216.115C123.466 216.292 123.227 216.473 122.978 216.598C122.713 216.745 122.48 216.847 122.227 216.953C122.099 216.997 121.933 217.047 121.801 217.072L121.575 217.114C121.406 217.146 121.252 217.155 121.069 217.112L121.031 217.119C121.031 217.119 121.012 217.122 120.99 217.107C120.851 217.094 120.687 217.047 120.537 216.978C120.223 216.862 119.933 216.663 119.594 216.415C119.405 216.236 119.171 216.027 118.949 215.777C118.593 215.435 118.26 215.011 117.939 214.545C117.363 213.758 116.748 212.764 116.15 211.65C115.981 211.37 115.827 211.068 115.676 210.785C115.599 210.682 115.555 210.554 115.496 210.448C115.115 209.663 114.705 208.825 114.303 207.928C113.693 206.543 113.065 205.065 112.401 203.496C112.361 203.386 112.325 203.296 112.266 203.19C112.124 202.847 111.997 202.481 111.854 202.138C111.705 201.758 111.582 201.411 111.432 201.03C106.247 187.501 101.222 169.114 99.1758 161.108C98.6821 159.098 98.353 157.759 98.2613 157.27C97.8206 154.919 109.082 151.834 117.988 149.794C123.758 148.479 128.574 147.576 128.574 147.576L128.599 147.61Z" fill="#CFD8DC"/>
<path id="Vector_7" d="M130.056 197.849C130.01 198.228 129.967 198.625 129.903 199.007C129.84 199.505 129.763 200.026 129.697 200.506C129.51 201.689 129.297 202.839 129.096 203.947C129.028 204.31 128.941 204.677 128.869 205.021C128.801 205.384 128.729 205.729 128.62 206.08C128.548 206.424 128.454 206.754 128.363 207.101C128.288 207.427 128.19 207.737 128.096 208.066C127.838 208.971 127.546 209.805 127.244 210.581C127.194 210.63 127.19 210.708 127.181 210.768C127.034 211.127 126.884 211.467 126.73 211.787C126.564 212.149 126.398 212.511 126.21 212.858C126.198 212.899 126.153 212.966 126.126 213.03C125.964 213.313 125.788 213.619 125.623 213.883C125.425 214.173 125.211 214.486 125.009 214.757C124.993 214.78 124.978 214.802 124.932 214.869C124.76 215.096 124.563 215.289 124.369 215.5C124.16 215.734 123.943 215.93 123.686 216.115C123.466 216.292 123.227 216.473 122.978 216.598C122.713 216.745 122.48 216.847 122.227 216.953C122.099 216.997 121.933 217.047 121.801 217.072L121.669 217.096C121.455 217.098 121.267 217.133 121.087 217.108L121.05 217.115C121.05 217.115 121.031 217.119 121.009 217.104C120.87 217.091 120.705 217.044 120.556 216.974C120.276 216.832 119.952 216.659 119.647 216.386C119.42 216.214 119.205 216.001 118.987 215.77C118.668 215.421 118.32 215.019 117.977 214.538C117.401 213.751 116.786 212.757 116.187 211.642C116.018 211.363 115.864 211.061 115.714 210.777C115.636 210.675 115.593 210.547 115.534 210.441C115.149 209.638 114.743 208.818 114.341 207.921C113.731 206.536 113.103 205.058 112.439 203.489C112.402 203.398 112.362 203.289 112.341 203.176L112.322 203.18C112.18 202.836 112.053 202.471 111.911 202.128C114.716 200.473 118.302 199.138 122.309 198.387L122.685 198.317C125.266 197.852 127.805 197.687 130.124 197.798L130.056 197.849Z" fill="#263238"/>
<path id="Vector_8" d="M131.23 197.882C131.177 198.535 130.646 199.024 130.019 199.005C129.981 199.012 129.94 199 129.903 199.007C127.584 198.897 125.089 199.092 122.569 199.565L122.475 199.582C118.712 200.288 115.225 201.526 112.458 203.174C112.423 203.2 112.348 203.214 112.311 203.221L112.292 203.224C112.292 203.224 112.167 203.287 112.092 203.301C111.64 203.385 111.133 203.169 110.879 202.75C110.562 202.205 110.736 201.472 111.281 201.156C111.352 201.123 111.387 201.097 111.455 201.045C114.6 199.229 118.607 197.855 122.688 197.187C125.193 196.737 127.729 196.553 130.123 196.649C130.141 196.646 130.164 196.661 130.201 196.654C130.801 196.736 131.287 197.249 131.245 197.86L131.23 197.882Z" fill="#E64A19"/>
</g>
</g>
<path id="Vector_9" d="M118.643 119.228C118.504 118.903 118.362 118.56 118.204 118.239C118.087 118.028 118.003 117.79 117.864 117.564C117.849 117.488 117.824 117.454 117.791 117.383C116.634 114.952 115.327 112.55 113.981 110.252C112.333 107.486 110.555 104.861 108.609 102.481C108.569 102.371 108.473 102.273 108.38 102.193C102.252 94.641 94.7252 89.7066 85.9215 91.3574L85.677 91.4032C80.3299 92.4838 76.3312 95.6667 73.3493 100.119C71.5492 102.773 70.1417 105.859 69.0423 109.238C68.7506 110.072 68.4849 110.939 68.2415 111.822C67.1902 115.561 66.481 119.568 66.0046 123.57C65.8811 124.78 65.7505 125.953 65.6494 127.179C65.5423 128.581 65.4235 130.025 65.3952 131.431C65.3717 131.514 65.3893 131.608 65.3658 131.69C65.3163 132.361 65.3045 133.025 65.2928 133.689L65.2739 133.693C65.2739 133.693 65.2798 133.828 65.2904 133.884C65.2292 135.531 65.2173 137.129 65.2172 138.686C65.2089 140.304 65.2241 141.838 65.2887 143.325C65.3262 144.875 65.3873 146.343 65.4565 147.751C65.4988 148.6 65.5529 149.407 65.5998 150.177C65.9393 154.999 66.3753 158.363 66.534 159.209C67.0946 162.199 83.7953 162.162 93.1821 161.648C95.7851 161.51 97.8179 161.343 98.8184 161.175L99.2134 161.101C101.776 160.542 111.262 157.44 118.775 154.202C124.413 151.763 128.937 149.201 128.63 147.565C128.471 146.719 127.659 143.426 126.229 138.808C125.99 138.055 125.748 137.283 125.483 136.496C125.086 135.207 124.615 133.836 124.11 132.393C123.598 131.01 123.045 129.517 122.474 128.028C121.425 125.344 120.255 122.527 118.926 119.7C118.923 119.681 118.916 119.644 118.886 119.591L118.804 119.567C118.804 119.567 118.783 119.455 118.728 119.368L118.699 119.217L118.643 119.228Z" fill="#CFD8DC"/>
<path id="Vector_10" d="M97.0883 150.91C93.834 151.52 70.7457 152.696 65.0132 149.956C64.4347 149.675 64.1879 148.982 64.4689 148.404C64.7499 147.825 65.4436 147.578 66.022 147.859C70.9222 150.211 93.0464 149.293 96.677 148.613C100.308 147.932 121.239 140.756 124.977 136.805C125.414 136.333 126.15 136.312 126.621 136.749C127.093 137.186 127.114 137.922 126.677 138.394C122.307 143.028 100.361 150.296 97.126 150.903L97.0883 150.91Z" fill="#E64A19"/>
<path id="Vector_11" d="M131.959 111.631L122.857 115.323L119.005 116.902L118.409 117.15L117.794 117.401L117.606 117.437L117.304 117.591L116.961 117.733L112.098 119.735L68.354 137.553C67.2795 136.392 66.2544 135.183 65.2974 133.922C65.2751 133.906 65.2716 133.888 65.2457 133.854C65.1129 133.664 64.9648 133.498 64.8319 133.308C64.6544 133.089 64.4922 132.846 64.3111 132.608C62.985 130.832 61.7918 128.934 60.7232 126.974C60.5939 126.803 60.5175 126.604 60.4105 126.449C60.3188 126.271 60.2236 126.075 60.1166 125.92C58.4979 122.895 57.2071 119.75 56.3338 116.546C54.1063 108.613 54.3208 100.514 58.0587 93.7595C62.02 86.5348 69.9574 80.7835 83.2193 78.2967C93.5091 76.3673 103.605 78.3868 112.006 83.3129C115.368 85.2518 118.435 87.6938 121.126 90.5178C121.698 91.0725 122.216 91.6566 122.723 92.2818C124.718 94.6134 126.488 97.2012 127.945 99.9841C129.101 102.201 130.063 104.531 130.821 107.017C131.295 108.505 131.685 110.067 131.982 111.646L131.959 111.631Z" fill="#CFD8DC"/>
<g id="Group_5">
<path id="Vector_12" d="M72.85 93.6138L73.3376 100.16L73.9591 108.355L74.4712 115.345L75.1127 123.75L75.37 126.992C74.7457 127.089 74.152 127.142 73.5206 127.202C71.1716 127.448 68.8178 127.461 66.47 127.298C66.2113 127.268 65.9186 127.265 65.6599 127.236C64.0587 127.108 62.4585 126.882 60.8596 126.559C60.7209 126.546 60.5563 126.499 60.414 126.467C60.2494 126.42 60.0508 126.399 59.8638 126.337C47.9131 123.77 36.3964 116.664 28.1682 107.676C26.3343 105.684 24.8624 104.169 23.3106 101.813C21.7553 99.4378 20.1166 96.2024 17.9007 90.7199C16.1844 87.3822 15.6532 83.5109 14.4366 79.8265C14.4366 79.8265 14.4107 79.7924 14.419 79.7325C14.3931 79.0755 14.3073 78.4103 14.0852 77.8485C13.9547 77.4642 13.756 77.1316 13.4703 76.8543L16.6519 75.1287L23.0114 71.6588L23.9861 71.1451C24.1624 71.4624 24.3763 71.7727 24.6162 72.117C26.1315 74.3829 28.4569 77.0224 29.8335 78.9638C29.8335 78.9638 29.9111 79.066 29.9146 79.0849L29.9334 79.0813C32.7948 83.0218 40.239 87.9327 43.8483 90.5651C46.9249 92.8496 50.6777 93.2359 53.8285 93.4237C55.4263 93.5329 56.7913 93.6468 58.0587 93.7595C63.6455 94.2691 66.5189 94.7425 72.8724 93.6291L72.85 93.6138Z" fill="#CFD8DC"/>
<path id="Vector_13" d="M26.1672 66.4732C25.6028 67.8249 24.7692 69.0907 23.9097 70.011C23.8638 70.078 23.8333 70.1227 23.7992 70.1485C23.6428 70.6645 23.4111 71.1946 23.0302 71.6553C22.5222 72.3734 21.805 73.014 20.7692 73.617C18.8563 74.7349 17.8181 75.533 17.0233 76.0713C15.971 76.7942 15.315 77.034 13.4891 76.8508C13.2211 76.6675 12.9354 76.3901 12.658 76.0528C11.1885 74.3429 9.62263 70.977 9.11951 69.7477C7.55019 65.7402 6.09283 57.1372 11.4447 54.4207C11.6187 54.3103 11.8186 54.2338 11.9997 54.161C18.3062 51.6548 20.4645 57.2454 21.9703 61.5374L21.9891 61.5339L22.0044 61.5115C23.2319 59.9577 24.6534 59.1267 25.755 59.6014C25.7996 59.632 25.8819 59.6555 25.9489 59.7013C27.3397 60.4722 27.4501 63.4491 26.1449 66.458L26.1672 66.4732Z" fill="#CFD8DC"/>
<path id="Vector_14" d="M24.6162 72.1171C24.6162 72.1171 24.5821 72.1429 24.5327 72.1911L17.0739 76.237L14.0887 77.8674L14.0511 77.8744C13.9452 77.9332 13.8206 77.9955 13.7078 78.0167C13.2375 78.1048 12.7296 77.8886 12.4909 77.4467C12.2453 76.9672 12.3229 76.4466 12.665 76.0905C12.7485 76.0164 12.8508 75.9388 12.9566 75.8801L15.9947 74.2203L23.4312 70.1591C23.5934 70.0898 23.7369 70.024 23.8979 70.0522C24.36 70.0239 24.8044 70.2131 25.0019 70.6432C25.2958 71.1721 25.1264 71.8267 24.6232 72.1547L24.6162 72.1171Z" fill="#E64A19"/>
</g>
<path id="Vector_15" opacity="0.2" d="M25.9525 59.7201C24.7285 60.9813 23.5351 62.8207 22.6944 63.7375C22.1642 63.1945 21.9973 62.4083 22.0079 61.5303L22.0267 61.5268C23.2542 59.973 24.6757 59.142 25.7773 59.6167C25.822 59.6472 25.9043 59.6707 25.9713 59.7166L25.9525 59.7201Z" fill="#212121"/>
<path id="Vector_16" opacity="0.2" d="M66.0117 123.607C66.262 124.943 66.416 126.179 66.4665 127.279C66.5686 130.004 66.1264 132.112 65.281 133.73L65.2622 133.734C65.2622 133.734 65.2387 133.816 65.2081 133.861C65.0753 133.671 64.9271 133.505 64.7943 133.315C64.6168 133.096 64.4545 132.854 64.2735 132.615C62.9474 130.839 61.7542 128.941 60.6856 126.981C60.5563 126.811 60.4799 126.611 60.3729 126.456C60.2083 126.409 60.0096 126.387 59.8227 126.325C47.8719 123.758 36.3553 116.652 28.1271 107.664C26.2931 105.672 24.8213 104.158 23.2695 101.801C21.7142 99.4261 20.0755 96.1907 17.8596 90.7082C16.1433 87.3705 15.6121 83.4992 14.3955 79.8148C14.3955 79.8148 14.3696 79.7807 14.3778 79.7207C14.352 79.0638 14.2662 78.3986 14.044 77.8368L14.0064 77.8439C13.9006 77.9026 13.776 77.9649 13.6631 77.9861C13.1928 78.0743 12.6849 77.8581 12.4463 77.4162C12.2006 76.9367 12.2782 76.416 12.6204 76.0599C11.1509 74.35 9.58503 70.9841 9.0819 69.7548C7.51258 65.7472 6.05522 57.1443 11.4071 54.4278C11.061 62.2399 11.1312 69.1564 15.9688 74.1862C16.1205 74.3719 16.3063 74.5317 16.4697 74.6763C16.5132 74.8044 16.6013 74.963 16.6483 75.1099C16.78 75.3967 16.8776 75.7093 17.0198 76.0525C17.0269 76.0901 17.0598 76.1618 17.0704 76.2182C19.5636 82.9723 24.6569 99.4388 41.932 109.631C47.5633 112.974 52.3283 115.02 56.3115 116.531C59.7526 117.851 62.606 118.737 64.975 119.636C65.4381 121.068 65.7825 122.385 66.0082 123.589L66.0117 123.607Z" fill="#212121"/>
<g id="Group_6">
<path id="Vector_17" d="M144.071 128.767L142.216 129.776L133.575 134.472C133.575 134.472 133.493 134.351 133.442 134.283C133.295 134.019 133.133 133.777 132.967 133.516C131.414 131.257 129.085 128.599 127.708 126.657L127.689 126.661C127.689 126.661 127.627 126.536 127.62 126.498C126.018 124.288 123.003 121.817 120.031 119.571C119.971 119.563 119.949 119.547 119.942 119.51C119.469 119.17 119.016 118.827 118.569 118.521C118.435 118.43 118.32 118.335 118.186 118.243C117.888 118.007 117.557 117.796 117.285 117.594C117.014 117.392 116.708 117.216 116.455 117.01C116.455 117.01 116.433 116.995 116.414 116.998C115.383 116.277 114.46 115.613 113.694 115.056C113.042 114.594 112.359 114.274 111.637 114.059C110.867 113.795 110.028 113.68 109.207 113.561C107.655 113.385 106.143 113.318 104.772 112.758C104.395 112.614 104.029 112.43 103.694 112.201C102.555 111.422 101.153 110.692 99.3151 110.238C98.4474 109.973 97.4434 109.811 96.3183 109.73C94.3419 109.575 91.987 109.685 89.1618 110.196L83.6013 80.5415C93.315 79.0704 103.08 80.782 111.866 84.9548C115.091 86.4718 118.187 88.3438 121.063 90.4908C121.714 90.9526 122.354 91.4556 122.997 91.9774C125.28 93.7683 127.391 95.7861 129.351 97.9296C129.499 98.0965 129.644 98.2446 129.789 98.3927C131.43 100.187 132.786 101.607 134.209 103.793C135.764 106.168 137.403 109.403 139.619 114.886C141.335 118.223 141.847 122.098 143.083 125.779C143.083 125.779 143.109 125.813 143.1 125.873C143.126 126.53 143.209 127.177 143.431 127.738C143.561 128.123 143.76 128.455 144.046 128.733L144.071 128.767Z" fill="#CFD8DC"/>
<g id="Group_7">
<path id="Vector_18" d="M144.198 148.344C143.821 148.512 143.49 148.614 143.199 148.726C136.585 150.94 144.891 140.72 139.542 139.193C139.448 139.211 139.392 139.221 139.305 139.276C137.041 140.187 138.748 147.42 135.872 146.519C135.727 146.468 135.536 146.387 135.342 146.287C134.089 145.627 133.589 140.99 133.576 135.62C133.584 135.249 133.566 134.844 133.575 134.472L142.216 129.776L144.071 128.767C144.338 129.047 144.568 129.335 144.816 129.62C150.553 136.33 151.024 145.488 144.195 148.326L144.198 148.344Z" fill="#CFD8DC"/>
<path id="Vector_19" d="M144.816 129.62C144.816 129.62 144.702 129.739 144.611 129.775L142.967 130.667L134.114 135.481C134.005 135.521 133.895 135.561 133.783 135.582C133.707 135.596 133.651 135.606 133.572 135.602C133.475 135.601 133.396 135.596 133.291 135.557C133.007 135.494 132.72 135.314 132.585 135.008C132.265 134.445 132.453 133.787 132.982 133.493C132.997 133.471 133.013 133.449 133.05 133.442L133.489 133.184L141.862 128.616L143.472 127.75L143.51 127.743C144.092 127.42 144.791 127.619 145.077 128.208C145.36 128.681 145.237 129.268 144.812 129.601L144.816 129.62Z" fill="#E64A19"/>
</g>
<path id="Vector_20" d="M129.833 98.4232L127.926 99.9877L126.072 101.523L123.217 103.849L117.332 96.6601L119.531 94.8853L122.704 92.2853L123.023 92.0114C125.306 93.8024 127.417 95.8202 129.377 97.9637C129.525 98.1306 129.67 98.2787 129.814 98.4267L129.833 98.4232Z" fill="#1A237E"/>
</g>
<path id="Vector_21" opacity="0.2" d="M139.305 139.276C137.041 140.187 138.748 147.42 135.872 146.519C135.744 143.448 135.265 137.153 139.305 139.276Z" fill="#212121"/>
<path id="Vector_22" opacity="0.2" d="M144.198 148.344C143.821 148.512 143.49 148.614 143.199 148.726C145.005 146.519 146.651 143.563 146.265 140.463C145.649 135.829 144.69 132.894 142.971 130.686C142.738 130.379 142.487 130.076 142.22 129.795C142.144 129.498 142.017 129.132 141.869 128.654C140.389 124.396 135.658 113.701 130.821 107.017C130.338 106.309 129.843 105.643 129.325 105.059C128.444 103.998 127.322 102.787 126.091 101.519C124.066 99.4462 121.726 97.1405 119.55 94.8817C115.853 91.0589 112.569 87.3535 111.911 84.9853C111.708 84.3225 111.715 83.7372 112.006 83.3129C115.368 85.2518 118.436 87.6938 121.126 90.5178C121.778 90.9796 122.417 91.4826 123.06 92.0044C125.344 93.7953 127.455 95.8131 129.415 97.9567C129.563 98.1235 129.707 98.2716 129.852 98.4197C131.493 100.214 132.85 101.634 134.272 103.82C135.828 106.195 137.466 109.43 139.682 114.913C141.399 118.25 141.911 122.125 143.146 125.806C143.146 125.806 143.172 125.84 143.164 125.9C143.19 126.557 143.272 127.204 143.494 127.765L143.532 127.758C144.114 127.435 144.813 127.635 145.099 128.224C145.382 128.696 145.259 129.284 144.834 129.616C150.571 136.327 151.042 145.484 144.214 148.322L144.198 148.344Z" fill="#212121"/>
<g id="Group_8">
<path id="Vector_23" d="M104.592 116.782C108.374 116.073 110.865 112.433 110.156 108.653C109.447 104.873 105.807 102.383 102.025 103.092C98.2438 103.802 95.7528 107.441 96.4616 111.221C97.1705 115.001 100.811 117.491 104.592 116.782Z" fill="#1A237E"/>
<path id="Vector_24" d="M94.5451 114.5L108.873 101.809L102.207 119.74L100.997 113.29L94.5451 114.5Z" fill="#D84315"/>
</g>
<path id="Vector_25" d="M81.5024 106.941L67.8078 109.509L69.0912 116.353L82.7858 113.785L81.5024 106.941Z" fill="#78909C"/>
<g id="Group_9">
<path id="Vector_26" d="M80.3515 126.038C80.7041 127.918 79.4695 129.746 77.5695 130.102C75.6696 130.459 73.8603 129.221 73.5042 127.322C73.148 125.423 74.3861 123.614 76.2861 123.258C78.186 122.901 79.9953 124.139 80.3515 126.038Z" fill="#212121"/>
<path id="Vector_27" d="M82.4882 137.433C82.8408 139.314 81.6062 141.141 79.7063 141.498C77.8064 141.854 75.997 140.616 75.6409 138.717C75.2848 136.818 76.5229 135.009 78.4228 134.653C80.3228 134.297 82.1321 135.534 82.4882 137.433Z" fill="#212121"/>
</g>
<path id="Vector_28" d="M113.094 131.694C113.447 133.575 112.212 135.402 110.312 135.759C108.412 136.115 106.603 134.878 106.247 132.978C105.891 131.079 107.129 129.27 109.029 128.914C110.929 128.558 112.738 129.795 113.094 131.694Z" fill="#212121"/>
<g id="Group_10">
<path id="Vector_29" opacity="0.2" d="M81.5191 143.377C79.9248 145.155 77.9154 146.174 75.1314 146.696C72.6107 147.169 69.4304 147.24 65.4119 147.098C65.3626 145.9 65.3027 144.646 65.2734 143.347C65.2581 143.058 65.2581 142.747 65.2429 142.458C73.2164 142.715 76.3873 142.178 78.0392 140.292C78.8917 139.334 80.3566 139.254 81.3147 140.106C82.2693 140.939 82.3715 142.419 81.5191 143.377Z" fill="#212121"/>
<path id="Vector_30" opacity="0.2" d="M125.287 135.968C121.77 137.464 118.924 138.485 116.46 138.947C113.694 139.465 111.434 139.247 109.322 138.163C108.181 137.579 107.721 136.167 108.309 135.044C108.893 133.903 110.306 133.443 111.448 134.027C113.63 135.175 116.708 134.559 123.764 131.582C123.876 131.872 123.967 132.147 124.076 132.419C124.504 133.662 124.918 134.83 125.287 135.968Z" fill="#212121"/>
</g>
<path id="Vector_31" opacity="0.2" d="M131.4 126.51C129.605 123.479 126.519 118.86 122.857 115.323C120.115 112.645 117.025 110.597 113.988 110.29C113.272 110.21 112.558 110.247 111.862 110.377C111.721 111.494 111.661 112.731 111.675 114.052C111.691 115.801 111.871 117.695 112.098 119.735C112.534 123.098 113.236 126.84 114.048 130.756C114.349 132.257 114.691 133.77 115.021 135.323C115.457 137.441 115.934 139.571 116.374 141.707C116.537 142.475 116.701 143.242 116.849 144.032C117.253 145.981 117.661 147.948 118.017 149.847C118.299 151.352 118.518 152.829 118.748 154.265C118.829 154.698 118.891 155.134 118.95 155.551C120.201 164.504 123.216 181.418 122.679 197.247C122.671 197.619 122.685 198.005 122.639 198.384C122.638 198.793 122.633 199.183 122.572 199.584C122.263 205.617 121.366 211.43 119.62 216.449C119.624 216.468 119.605 216.471 119.605 216.471C119.944 216.719 120.234 216.918 120.548 217.034C120.697 217.104 120.839 217.135 121 217.164C121 217.164 121.014 217.167 121.042 217.175L121.079 217.168C121.244 217.215 121.417 217.202 121.586 217.171L121.812 217.128C121.943 217.104 122.109 217.053 122.237 217.009C122.509 216.9 122.743 216.798 122.989 216.654C123.253 216.508 123.477 216.349 123.696 216.171C123.954 215.987 124.167 215.772 124.38 215.557C124.574 215.345 124.771 215.152 124.943 214.925C124.973 214.881 125.004 214.836 125.019 214.814C125.221 214.542 125.435 214.23 125.634 213.939C125.799 213.675 125.975 213.369 126.136 213.086C126.16 213.004 126.209 212.956 126.221 212.914C126.39 212.571 126.556 212.209 126.741 211.844C126.891 211.504 127.045 211.183 127.192 210.825C127.2 210.765 127.209 210.705 127.254 210.638C127.553 209.842 127.845 209.009 128.107 208.123C128.201 207.794 128.295 207.465 128.374 207.158C128.464 206.81 128.558 206.481 128.63 206.136C128.721 205.789 128.811 205.441 128.879 205.078C128.951 204.733 129.038 204.366 129.106 204.003C129.33 202.91 129.539 201.742 129.707 200.562C129.773 200.083 129.851 199.562 129.913 199.064C129.97 199.053 129.992 199.068 130.03 199.061C130.656 199.08 131.188 198.591 131.241 197.939C131.267 197.35 130.796 196.815 130.197 196.733C131.987 180.63 130.776 159.115 128.625 147.644C128.467 146.798 127.654 143.505 126.224 138.887C126.391 138.739 126.52 138.598 126.668 138.453C127.128 137.997 127.103 137.243 126.613 136.809C126.305 136.517 125.86 136.425 125.479 136.574C125.081 135.286 124.61 133.915 124.106 132.472C123.593 131.088 123.041 129.596 122.469 128.107C121.421 125.422 120.25 122.605 118.922 119.779C118.918 119.76 118.911 119.722 118.882 119.67L118.799 119.646C118.799 119.646 118.778 119.533 118.723 119.446L118.695 119.296C118.556 118.972 118.414 118.628 118.256 118.308C118.39 118.399 118.505 118.494 118.639 118.586C119.071 118.914 119.54 119.235 120.013 119.574C120.016 119.593 120.042 119.627 120.102 119.635C123.074 121.881 126.092 124.371 127.691 126.563C127.694 126.582 127.727 126.654 127.753 126.688L127.772 126.684C129.152 128.644 131.481 131.303 133.034 133.561C132.505 133.855 132.317 134.513 132.636 135.076C132.79 135.378 133.058 135.562 133.343 135.625C133.4 135.206 133.458 134.786 133.505 134.31C133.539 133.973 133.57 133.617 133.537 133.234C133.517 131.466 133.048 129.276 131.463 126.537L131.4 126.51Z" fill="#212121"/>
<path id="Vector_32" d="M74.4262 142.935C71.6421 143.457 68.0833 143.482 63.4722 143.296C62.1966 143.243 61.1962 142.165 61.2491 140.89C61.3021 139.615 62.3803 138.615 63.6559 138.668C72.289 139.015 75.6174 138.488 77.334 136.531C78.1865 135.573 79.6479 135.474 80.606 136.326C81.5641 137.178 81.6628 138.639 80.8104 139.597C79.2196 141.394 77.2067 142.395 74.4227 142.917L74.4262 142.935Z" fill="#78909C"/>
<path id="Vector_33" d="M115.755 135.186C112.989 135.704 110.728 135.486 108.598 134.406C107.457 133.822 107.019 132.425 107.604 131.283C108.188 130.142 109.586 129.705 110.728 130.289C113.037 131.491 116.326 130.757 124.251 127.325C125.42 126.814 126.806 127.352 127.318 128.521C127.829 129.691 127.287 131.057 126.117 131.569C121.868 133.417 118.561 134.679 115.777 135.201L115.755 135.186Z" fill="#78909C"/>
<path id="Vector_34" opacity="0.2" d="M80.4613 137.736C78.8705 139.533 76.8576 140.533 74.0736 141.055C71.2895 141.577 67.7307 141.602 63.1196 141.416C62.3731 141.38 61.7547 140.99 61.3561 140.423C61.3244 140.565 61.255 140.714 61.2491 140.89C61.1961 142.165 62.1966 143.243 63.4722 143.296C68.1021 143.479 71.6421 143.457 74.4262 142.935C77.2102 142.413 79.2195 141.394 80.8139 139.616C81.537 138.799 81.5323 137.632 80.9457 136.788C80.8552 137.136 80.7199 137.453 80.4613 137.736ZM127.314 128.502C127.248 128.359 127.13 128.245 127.045 128.105C126.879 128.779 126.444 129.366 125.761 129.67C121.512 131.517 118.205 132.78 115.421 133.302C112.637 133.824 110.395 133.602 108.264 132.522C107.921 132.353 107.677 132.087 107.47 131.815C107.232 132.832 107.651 133.922 108.617 134.403C110.751 135.501 112.989 135.704 115.773 135.182C118.557 134.66 121.883 133.394 126.114 131.55C127.284 131.039 127.826 129.672 127.314 128.502Z" fill="#212121"/>
<g id="Group_11" opacity="0.2">
<path id="Vector_35" d="M62.1484 123.359C62.1484 123.359 61.651 124.445 61.1536 125.531C61.0631 125.878 60.9349 126.233 60.8561 126.54C60.8126 126.724 60.7432 126.873 60.7267 126.993C60.5974 126.822 60.521 126.622 60.414 126.467C60.2494 126.42 60.0508 126.399 59.8638 126.337C59.9367 126.206 60.0284 126.072 60.1201 125.938C60.2695 125.696 60.4035 125.477 60.5528 125.234C61.3453 124.268 62.1519 123.377 62.1519 123.377L62.1484 123.359Z" fill="#212121"/>
<path id="Vector_36" d="M65.6597 131.284C65.6597 131.284 65.488 131.511 65.3728 131.727C65.1741 132.018 64.9624 132.447 64.8742 132.911C64.8613 133.05 64.826 133.173 64.8166 133.331C64.6391 133.111 64.4769 132.869 64.2958 132.63C64.6274 132.218 64.8273 131.83 65.1823 131.646C65.2693 131.591 65.3375 131.539 65.3869 131.491C65.5045 131.391 65.6103 131.333 65.6667 131.322L65.6597 131.284Z" fill="#212121"/>
<path id="Vector_37" d="M120.002 119.518L119.964 119.525C119.492 119.185 119.038 118.842 118.591 118.537C118.575 118.345 118.536 118.138 118.516 117.928C118.477 117.721 118.45 117.473 118.408 117.247L118.39 117.153C118.223 116.056 117.766 115.071 117.614 114.885C117.745 114.958 118.527 115.804 118.983 116.887C118.99 116.924 119.019 116.977 119.026 117.015C119.381 117.766 119.665 118.549 119.835 119.043C119.948 119.333 119.999 119.499 119.999 119.499L120.002 119.518Z" fill="#212121"/>
<path id="Vector_38" d="M118.671 119.378C118.447 119.011 117.975 118.574 117.466 118.144C117.299 117.981 117.102 117.862 116.945 117.755C116.153 117.164 115.403 116.799 115.212 116.718C115.329 116.715 115.819 116.837 116.421 117.036C116.44 117.032 116.462 117.048 116.462 117.048C116.817 117.176 117.195 117.319 117.598 117.497C117.68 117.52 117.747 117.566 117.829 117.589L117.848 117.586C118.072 117.739 118.303 117.832 118.501 117.95C118.877 118.191 119.253 118.432 119.52 118.713C119.639 118.827 119.761 118.96 119.823 119.084C119.908 119.224 119.974 119.367 120.002 119.518L120.02 119.612C120.02 119.612 119.937 119.588 119.93 119.551C119.458 119.211 119.004 118.868 118.557 118.563C118.423 118.471 118.308 118.376 118.174 118.284C118.331 118.605 118.489 118.926 118.612 119.272L118.637 119.404L118.671 119.378Z" fill="#212121"/>
</g>
</g>
<g id="Group_12">
<path id="Vector_39" d="M86.1906 94.2462C73.9821 96.5355 65.1867 96.5691 58.476 94.3236C57.2686 93.9077 56.5974 92.6126 57.0101 91.3867C57.4076 90.1832 58.722 89.5085 59.9482 89.9209C65.8701 91.9055 73.953 91.8108 85.3338 89.6768C96.7146 87.5428 104.279 84.6839 109.083 80.7075C110.077 79.8789 111.528 80.0351 112.353 81.0093C113.182 82.0024 113.044 83.4492 112.051 84.2778C106.606 88.7831 98.3991 91.957 86.1906 94.2462Z" fill="#263238"/>
<g id="Group_13">
<path id="Vector_40" d="M49.4497 61.9713C50.2995 66.5031 47.9243 70.7637 44.1433 71.4727C40.3622 72.1817 36.6084 69.0898 35.7551 64.5392L33.703 53.5951C32.8532 49.0633 35.2319 44.8216 39.013 44.1126C42.794 43.4036 46.5478 46.4954 47.3976 51.0272L49.4497 61.9713Z" fill="#90A4AE"/>
<path id="Vector_41" d="M122.437 48.2852C123.287 52.8171 120.912 57.0776 117.131 57.7866C113.35 58.4956 109.596 55.4038 108.743 50.8531L106.691 39.9091C105.841 35.3773 108.22 31.1355 112.001 30.4265C115.782 29.7175 119.536 32.8094 120.385 37.3412L122.437 48.2852Z" fill="#90A4AE"/>
<path id="Vector_42" d="M117.286 45.9421C122.843 75.5775 115.433 86.4271 85.7863 91.9862C56.1397 97.5453 45.2873 90.1395 39.7268 60.4853C34.5965 33.1252 48.9657 13.9047 70.373 9.89064C91.7802 5.87655 112.137 18.5856 117.267 45.9457L117.286 45.9421Z" fill="#CFD8DC"/>
<path id="Vector_43" opacity="0.2" d="M82.0159 9.36204C94.2957 14.2032 104.054 25.746 107.383 43.4972C112.94 73.1326 105.527 83.9634 75.88 89.5224C68.3179 90.9404 61.9974 91.5027 56.6609 91.0824C63.5397 94.3279 72.8747 94.3683 85.7792 91.9486C115.426 86.3895 122.839 75.5588 117.279 45.9046C113.093 23.584 98.7823 11.0261 82.0123 9.34324L82.0159 9.36204Z" fill="#212121"/>
<path id="Vector_44" d="M84.9106 87.4203C62.2995 91.6601 48.6738 82.3413 44.4355 59.7386C41.0153 41.4986 50.7554 30.0952 73.3665 25.8554C95.9965 21.612 109.187 28.7156 112.608 46.9556C117.026 70.5173 108.481 83.0006 84.9106 87.4203Z" fill="#263238"/>
<path id="Vector_45" d="M84.4805 85.1262C63.0733 89.1403 50.7207 80.6922 46.7082 59.293C43.5277 42.3316 52.3824 32.126 73.7897 28.1119C95.1969 24.0978 107.147 30.4022 110.328 47.3636C114.563 69.9474 107.073 80.8899 84.4805 85.1262Z" fill="#000014"/>
<path id="Vector_46" d="M60.1105 68.4591C60.7875 72.0695 61.876 75.486 63.2631 78.7296C58.5677 73.7316 55.1868 67.4359 53.8293 60.1962C51.9534 50.1924 54.2607 40.3775 59.5353 32.5756C62.5487 31.0956 66.0805 29.8884 70.0862 28.9231C61.4395 39.6153 57.3555 53.8706 60.0917 68.4627L60.1105 68.4591Z" fill="#EEEEEE"/>
</g>
</g>
</g>
<defs>
<clipPath id="clip0_7_123">
<rect width="125.266" height="213.13" fill="white" transform="translate(0 23.0864) rotate(-10.6203)"/>
</clipPath>
</defs>
</svg>
